P3
20 150
255
233 26 223 25 219 233 182 128 192 9 65 142 48 212 253 193 134 251 176 138 186 115 145 250 99 155 138 102 12 12 203 2 250 117 230 230 60 65 6 144 209 239 95 221 161 57 197 196 179 221 49 9 123 180 7 79 16 41 243 68 
1 195 13 217 239 172 154 207 233 236 118 88 159 137 219 74 82 104 49 16 13 108 145 49 70 3 28 228 8 186 39 8 155 210 203 63 240 71 145 112 182 177 19 236 246 136 232 52 213 169 58 248 67 159 206 49 191 53 237 0 
109 190 90 197 209 22 115 140 213 195 31 213 116 92 112 94 200 229 89 242 91 91 3 35 224 151 62 143 203 31 26 151 177 102 95 156 236 196 197 95 192 19 142 242 121 141 54 49 15 121 69 23 204 84 208 182 147 184 207 18 
4 138 65 65 83 178 55 218 32 18 174 177 196 13 120 165 251 62 92 145 130 3 152 190 134 86 236 76 168 73 26 81 89 52 146 43 197 251 222 128 128 100 136 207 134 141 225 40 56 207 207 202 232 96 0 0 43 57 10 39 
218 234 127 242 132 78 26 25 167 160 211 217 228 158 241 1 58 128 176 142 158 106 64 46 205 130 100 65 47 133 219 22 238 130 150 88 80 107 90 58 199 47 244 164 186 15 89 199 101 108 148 182 168 144 147 111 98 123 81 45 
69 221 19 189 182 248 146 234 136 112 128 123 105 80 23 153 24 247 10 203 12 213 44 225 138 156 35 210 48 96 83 7 15 212 219 209 162 213 246 50 166 67 7 211 242 214 80 251 233 81 146 193 93 241 255 164 87 133 146 81 
216 164 56 200 123 251 84 47 30 200 229 3 40 164 105 209 100 50 94 104 105 201 206 131 210 101 229 165 190 167 183 134 152 241 18 130 16 60 175 76 110 171 55 252 76 233 183 240 90 191 6 15 152 208 249 128 102 154 0 255 
105 194 108 120 162 229 84 7 8 44 116 31 54 90 162 79 49 253 226 198 146 10 215 2 251 221 168 158 41 103 123 50 166 220 46 152 47 223 193 173 176 182 57 0 36 139 190 19 141 54 108 5 42 185 117 37 45 63 12 228 
13 246 107 112 61 131 200 214 34 99 221 187 233 116 191 247 206 100 10 135 165 159 55 138 152 70 169 226 2 237 85 238 150 219 93 129 213 64 170 186 61 239 1 1 23 66 214 18 152 120 130 73 36 123 169 243 135 59 102 238 
26 66 52 151 158 226 36 58 138 113 18 5 212 51 255 238 206 182 140 139 254 203 31 137 128 33 101 214 25 198 57 219 6 115 19 234 21 32 39 25 38 36 197 94 2 211 177 218 206 134 69 191 216 34 9 139 147 146 0 73 
35 231 2 18 84 79 30 21 155 154 68 105 206 24 221 154 0 126 92 243 58 20 1 171 198 47 152 32 129 191 93 88 209 105 254 191 70 128 52 174 188 98 250 186 2 66 64 150 198 160 242 140 213 250 75 206 173 136 10 99 
255 101 82 68 50 87 170 137 244 100 226 149 234 227 23 159 119 138 176 32 54 63 142 221 193 112 64 164 138 228 53 8 22 194 18 45 251 160 15 158 144 247 84 246 117 214 179 182 83 73 5 22 237 146 100 222 114 163 246 232 
194 126 227 212 71 199 254 246 112 148 160 117 127 151 169 226 131 232 253 180 16 81 182 77 4 38 154 136 197 132 120 203 49 194 126 162 11 2 53 79 115 110 200 49 246 18 123 228 140 64 60 1 49 181 136 27 192 168 116 197 
192 52 176 166 230 172 143 254 46 47 109 54 33 115 210 136 180 227 247 143 35 142 171 103 102 210 34 48 3 43 24 194 192 240 179 202 138 103 98 101 118 149 140 206 100 188 74 15 197 135 148 50 243 114 44 38 178 156 118 40 
144 197 247 224 158 83 17 129 139 121 122 70 164 248 12 247 221 9 147 210 14 125 221 217 251 53 150 65 85 166 76 79 158 15 99 147 205 208 149 198 234 121 21 109 220 217 17 100 147 94 73 207 194 20 7 225 167 196 44 126 
6 181 52 230 65 73 122 159 34 249 57 81 31 233 23 211 14 39 8 222 173 225 254 143 24 80 243 160 12 1 137 18 234 37 126 41 105 125 9 149 96 103 24 239 185 173 0 79 203 72 217 60 112 42 11 107 59 164 8 115 
55 195 37 93 225 91 254 188 210 114 91 69 230 69 238 2 151 75 201 85 30 192 254 183 82 99 117 115 184 139 132 236 0 118 54 250 51 241 59 57 169 236 136 118 153 191 136 126 130 4 1 30 15 127 112 39 75 3 186 244 
120 241 199 43 205 149 19 118 183 234 208 78 142 78 207 168 11 192 139 23 188 95 14 189 126 240 155 30 44 207 49 254 125 137 251 178 64 235 234 87 214 213 157 98 90 210 92 221 13 148 189 91 238 33 169 182 245 228 52 47 
94 128 87 116 152 70 110 176 46 166 201 218 237 133 55 42 58 20 68 69 38 66 161 79 177 184 31 70 120 156 197 170 62 33 127 62 229 108 17 210 56 47 202 84 24 237 106 153 1 56 75 23 159 94 107 247 148 141 166 144 
190 241 81 157 18 250 3 138 212 43 184 149 22 171 227 45 53 20 41 64 56 48 101 89 64 187 1 209 237 253 182 144 97 69 179 204 183 183 237 210 97 70 197 45 48 83 229 32 51 115 40 183 244 193 173 13 199 131 130 197 
174 4 115 75 75 125 7 101 134 61 78 109 95 192 207 151 76 205 174 170 15 44 78 8 193 59 124 227 28 64 185 145 66 56 199 201 140 75 253 185 32 169 130 15 64 138 62 30 185 4 17 225 252 24 161 88 106 138 120 186 
129 188 186 100 150 222 241 227 98 227 123 142 93 6 57 140 18 140 137 99 8 124 138 202 7 186 14 226 214 243 194 206 126 128 44 224 119 234 252 46 135 36 55 90 35 86 37 129 230 237 2 121 9 112 191 122 154 169 122 157 
205 87 98 13 130 104 115 227 196 96 112 102 230 254 157 114 87 222 174 140 193 165 141 76 41 246 116 113 44 225 7 169 242 226 148 1 206 149 232 21 231 195 88 175 248 190 140 117 81 111 57 164 173 22 185 82 181 35 185 218 
104 89 233 169 226 170 133 137 73 58 159 161 13 105 185 237 44 143 83 135 21 108 5 122 122 243 170 120 111 24 252 194 187 98 240 86 39 141 253 147 209 213 155 239 27 5 163 104 205 10 51 200 183 151 135 3 86 126 164 31 
101 130 12 223 198 111 90 51 206 54 185 44 41 71 138 226 226 174 236 244 35 214 230 129 145 240 239 25 48 229 87 250 55 71 112 79 86 82 185 14 23 230 244 60 41 177 220 6 113 129 172 137 58 192 92 237 92 127 239 88 
27 210 200 147 126 197 103 131 113 89 174 53 206 219 77 118 9 135 47 180 71 39 95 207 65 112 189 187 64 213 13 115 1 20 133 150 111 166 217 42 200 194 153 246 0 135 231 60 145 211 162 204 133 158 174 178 227 43 137 178 
30 139 89 235 157 250 98 91 141 231 176 40 208 163 126 15 116 167 17 232 31 230 225 16 161 49 212 2 176 181 82 141 248 143 225 27 201 138 90 204 54 120 255 190 187 140 182 57 193 66 82 183 42 126 49 49 73 198 163 155 
67 46 61 75 242 153 64 219 193 103 47 179 70 99 220 81 51 218 198 242 134 214 30 50 5 55 47 211 209 147 156 233 56 189 117 8 248 62 120 26 242 83 218 117 185 5 121 103 216 78 57 173 251 236 219 141 41 215 175 191 
159 123 49 88 144 112 53 101 233 156 221 194 132 27 97 34 151 47 196 113 155 253 6 97 2 194 12 84 53 185 159 104 31 226 113 204 209 69 177 120 206 225 32 61 150 118 162 117 234 185 19 86 7 183 224 38 98 33 94 12 
135 117 49 247 199 140 183 153 35 140 170 131 31 11 77 165 49 241 191 73 186 159 203 11 109 82 232 233 171 183 81 43 72 133 70 20 105 94 194 139 217 240 6 118 47 166 225 79 76 133 222 148 161 235 182 158 15 170 160 175 
144 91 123 78 40 58 123 87 202 124 199 98 236 181 27 66 210 175 173 152 128 67 221 220 91 169 127 55 69 89 231 148 146 105 166 204 21 139 168 57 101 139 0 193 162 152 40 35 147 240 214 142 88 213 17 213 144 183 166 19 
143 174 140 193 131 7 117 195 125 240 167 13 0 218 137 155 139 52 195 193 202 172 238 193 33 200 207 36 84 172 213 67 25 149 130 33 106 13 159 165 4 0 195 0 74 146 167 93 149 126 122 168 255 1 231 236 127 205 226 231 
153 49 32 246 235 192 218 59 24 175 248 112 177 122 147 151 173 143 117 99 182 225 239 232 85 239 21 212 105 253 208 26 58 76 10 129 62 100 37 55 133 220 69 83 198 25 208 171 101 239 133 136 166 62 109 68 186 176 5 24 
3 227 53 209 176 114 33 98 184 188 174 185 146 216 120 90 201 11 121 98 159 37 16 190 202 160 205 172 85 217 207 56 147 20 176 152 164 82 246 145 250 236 187 27 242 241 83 249 89 67 244 18 157 151 23 126 95 103 255 210 
99 7 8 119 99 106 252 24 186 93 247 84 121 115 179 73 176 54 195 220 36 254 194 239 150 156 181 82 41 12 4 0 255 177 36 84 242 216 17 154 181 62 153 249 235 33 34 117 7 188 6 107 119 91 155 124 202 53 1 131 
140 27 22 77 212 53 99 126 187 23 71 238 124 13 1 10 115 222 137 52 34 49 183 104 15 228 202 170 55 165 231 18 157 42 88 225 190 55 176 119 69 29 149 207 15 236 109 139 66 218 54 249 3 21 238 94 152 160 125 215 
149 227 27 249 22 160 137 246 153 175 76 117 238 166 97 129 99 14 63 10 180 194 224 87 200 185 73 217 14 240 43 80 201 194 124 173 219 240 83 139 125 23 164 189 249 216 166 233 33 96 66 96 84 148 68 134 166 109 36 187 
209 95 21 95 121 184 227 31 112 42 250 21 102 129 14 211 17 20 155 63 56 248 109 40 152 155 174 69 128 121 197 217 32 255 2 100 96 195 182 125 108 249 250 36 136 170 126 123 247 77 38 133 186 227 18 147 18 161 230 93 
215 207 65 165 142 201 39 220 157 204 128 60 184 29 134 102 78 125 146 244 76 86 207 137 147 76 183 146 158 15 235 16 128 166 154 244 161 178 213 49 100 207 12 165 216 103 229 110 91 227 32 141 197 80 14 104 55 128 245 42 
123 181 27 47 38 98 74 78 190 28 79 150 248 60 133 222 43 22 88 139 204 162 184 102 13 205 96 165 186 189 18 150 4 188 54 137 51 254 237 205 247 232 145 34 70 83 12 48 33 163 173 222 72 105 45 37 180 145 193 205 
210 209 97 162 82 79 128 212 174 221 25 17 125 222 9 33 249 236 99 164 213 225 25 236 157 95 232 164 99 210 238 74 11 134 6 144 234 39 125 181 244 208 123 187 112 245 101 110 94 77 138 28 83 249 163 44 101 151 252 54 
48 38 16 227 98 156 63 17 140 21 206 217 219 70 79 82 73 76 103 33 197 87 34 137 23 130 202 243 107 217 117 79 49 136 124 183 221 240 64 142 110 84 2 209 50 16 161 19 103 228 179 45 54 14 230 28 103 152 150 143 
44 243 100 24 233 152 59 229 180 8 160 92 231 243 212 216 236 195 90 33 55 139 68 234 144 248 196 55 227 160 219 5 83 137 72 234 96 88 52 62 180 129 153 6 168 170 176 79 209 167 102 53 132 245 171 216 24 217 192 71 
155 186 219 165 183 206 106 114 195 61 255 70 182 167 84 88 243 30 112 7 10 64 49 251 93 194 210 86 29 53 150 13 143 140 92 87 9 161 150 233 89 163 245 57 49 8 195 140 113 24 32 153 13 59 230 128 20 222 237 11 
144 60 50 47 221 13 1 23 150 119 157 132 158 99 205 182 175 106 31 115 90 125 218 233 20 33 50 116 168 227 91 73 64 215 232 107 171 75 226 244 44 73 12 141 106 175 76 122 92 247 157 254 225 173 204 118 55 110 203 199 
97 122 102 156 172 96 116 119 75 189 107 68 50 103 124 23 177 244 28 70 132 133 111 34 136 149 97 246 86 56 30 217 5 239 94 209 92 25 214 5 64 62 19 99 46 99 252 3 232 71 220 74 83 88 211 89 161 140 78 169 
163 180 179 16 181 22 120 114 61 82 153 243 72 53 221 224 203 72 91 162 38 222 98 82 207 225 28 130 57 1 21 30 186 152 110 121 113 10 111 255 229 145 126 90 156 43 195 86 168 71 23 161 243 137 176 12 172 126 164 29 
44 108 151 241 201 186 4 42 11 188 152 61 245 143 175 183 12 53 18 231 27 76 99 103 63 4 95 252 160 75 180 185 124 217 10 141 128 96 233 10 171 141 3 85 16 74 210 224 114 121 206 105 146 205 87 176 246 201 65 208 
15 99 207 226 249 26 75 254 145 192 26 15 143 115 236 128 198 199 181 182 130 214 100 141 107 63 104 137 30 99 177 140 169 245 98 124 92 156 194 136 101 193 150 116 39 70 155 77 92 157 188 70 65 241 254 164 93 50 211 176 
163 153 87 203 150 67 194 145 237 98 16 151 170 37 212 96 138 74 250 240 183 191 149 50 42 21 180 143 130 214 0 182 220 114 232 243 28 126 183 32 34 248 109 24 190 228 207 138 186 182 223 29 80 1 26 139 253 190 78 233 
123 81 109 206 49 131 31 196 122 233 170 65 26 36 226 189 41 77 214 183 87 141 104 2 143 69 255 178 222 113 216 155 244 21 77 222 20 8 197 182 53 65 253 227 242 41 94 197 32 3 116 19 82 76 95 69 51 177 224 233 
110 10 142 82 155 101 87 182 215 216 89 187 246 50 212 59 181 155 125 107 63 5 141 235 241 209 71 215 132 65 171 217 13 227 129 106 216 123 40 112 46 231 250 181 33 89 122 107 101 6 247 142 23 94 195 243 156 146 253 92 
144 134 119 251 229 183 158 202 224 245 207 241 146 80 167 191 125 67 101 173 141 44 246 25 228 250 201 36 3 147 48 83 132 32 181 5 63 88 94 178 221 120 90 175 231 251 147 39 157 128 38 50 176 3 122 247 22 36 84 48 
54 198 36 174 96 134 105 160 178 69 253 16 131 191 151 111 19 144 66 95 157 71 211 249 61 65 1 253 46 244 92 41 247 83 91 92 93 96 35 33 85 193 81 50 33 210 90 233 29 113 254 229 110 74 250 241 189 109 214 145 
245 10 211 145 157 31 111 25 171 13 19 134 158 255 34 175 73 17 10 161 12 218 150 57 17 102 174 7 20 49 99 188 65 63 36 91 135 147 118 162 230 208 85 224 236 228 194 219 122 27 188 202 226 127 247 194 238 177 181 237 
162 212 0 8 110 15 163 87 102 209 130 0 248 210 5 36 46 145 241 212 183 172 239 198 181 107 202 39 8 86 187 173 129 234 0 47 82 51 146 91 32 240 26 153 166 118 249 109 137 255 220 73 221 46 103 139 70 119 97 240 
82 229 106 184 226 35 58 186 194 87 252 106 230 57 60 180 20 30 109 153 187 192 208 203 190 145 149 131 153 178 25 222 19 153 32 70 147 193 244 176 214 175 150 126 234 12 115 73 95 222 28 4 112 38 126 174 162 131 140 136 
90 62 12 135 75 103 170 227 219 165 114 241 253 117 6 131 141 5 51 209 118 92 105 184 1 89 138 127 154 209 113 111 149 209 246 76 96 253 91 71 24 218 254 240 151 109 222 94 81 185 120 226 236 114 179 203 32 217 39 224 
79 31 35 153 58 42 168 179 14 254 20 3 18 6 221 246 104 212 55 158 132 5 44 56 147 131 103 193 26 127 249 193 226 86 51 46 12 234 194 4 55 126 198 145 201 156 46 217 244 208 47 7 226 96 184 195 27 191 98 104 
6 11 46 83 128 248 40 76 248 232 84 77 58 175 129 178 183 86 175 96 194 127 201 56 202 17 41 45 108 203 37 118 25 47 199 27 45 199 103 12 195 232 164 65 222 223 145 38 30 165 188 216 35 126 132 183 50 186 174 203 
149 193 232 91 46 158 96 14 119 39 226 186 203 111 237 157 204 153 15 185 77 209 50 229 57 68 12 232 32 0 171 110 150 159 227 125 153 22 198 196 143 164 140 33 113 187 123 242 226 249 220 251 192 151 76 9 65 143 189 246 
79 67 79 149 149 40 196 154 167 194 176 122 88 135 95 220 54 234 13 136 131 62 151 174 183 157 143 88 6 173 127 202 246 44 249 3 99 152 158 210 171 129 180 147 97 245 154 43 151 205 142 84 10 185 133 89 102 66 127 23 
203 209 159 38 71 229 10 209 229 252 238 247 184 122 84 210 199 214 157 240 255 76 106 61 87 220 108 33 49 157 215 235 22 155 186 154 226 77 234 26 104 139 145 55 202 146 226 254 209 97 13 8 146 49 227 136 252 26 38 154 
220 237 87 116 19 96 39 213 206 91 14 224 255 7 136 38 145 42 245 81 160 192 92 129 112 4 163 40 241 222 40 115 19 241 22 109 169 119 231 194 87 15 215 238 9 214 129 214 100 55 215 125 41 140 91 184 162 154 35 45 
153 89 50 35 11 104 79 6 63 164 192 34 129 48 249 188 227 243 138 77 130 159 93 167 150 84 111 146 214 190 38 65 75 114 63 236 143 151 20 46 73 153 123 217 187 72 235 99 103 16 168 87 224 151 36 73 52 136 38 188 
86 19 45 24 128 8 247 5 86 220 245 233 213 54 228 186 80 126 16 195 2 45 158 26 157 77 78 197 179 200 198 121 90 165 165 194 168 110 44 3 78 248 179 90 190 171 207 143 46 237 126 124 8 95 176 220 207 233 33 117 
168 95 135 121 4 143 214 180 111 72 224 162 207 154 198 132 167 87 125 214 190 241 145 138 156 178 253 101 152 202 63 121 29 77 249 220 73 252 44 38 185 56 244 17 46 5 30 137 78 14 150 15 50 49 183 82 208 2 68 196 
100 188 187 170 102 136 223 50 39 108 240 251 132 28 91 191 251 77 5 231 145 174 230 226 231 130 120 88 213 209 4 228 177 112 46 104 7 132 83 189 26 165 243 223 103 154 10 190 156 245 109 119 47 154 43 205 213 87 0 86 
159 237 134 80 184 194 71 226 91 15 214 225 73 190 161 81 155 108 30 149 154 106 143 79 19 255 253 194 253 42 202 154 116 83 114 210 183 133 28 44 66 206 164 229 9 241 3 218 45 99 191 89 16 103 68 172 186 174 7 25 
174 241 231 81 76 72 132 101 40 52 132 128 179 193 212 94 26 1 125 195 53 106 189 63 246 170 9 8 224 98 135 188 1 122 56 199 110 192 69 24 66 126 60 133 238 206 187 203 86 89 138 153 38 165 117 146 156 13 74 58 
38 9 25 209 177 104 75 154 236 33 42 69 151 166 115 75 71 152 22 145 255 51 224 94 163 68 88 207 142 70 112 171 55 172 49 53 129 56 203 103 107 196 49 95 52 53 35 189 172 24 11 92 2 161 116 96 216 183 249 36 
220 184 154 53 185 175 144 164 67 91 58 222 11 45 57 190 53 0 30 96 214 137 170 154 112 205 232 253 90 227 249 9 50 236 77 73 134 44 234 61 78 235 56 84 57 108 107 29 5 32 190 7 118 232 53 53 11 50 134 135 
230 189 38 35 118 234 136 227 10 166 100 55 98 88 35 154 52 68 12 210 214 115 11 31 242 135 246 182 212 134 216 182 80 128 190 111 80 30 32 0 188 129 69 133 153 248 4 153 116 51 97 64 145 70 238 116 19 66 161 77 
151 26 188 127 55 38 170 248 94 9 154 126 50 104 112 7 212 179 146 198 91 52 52 90 255 243 255 96 205 188 1 211 44 237 244 84 246 207 42 84 198 83 142 84 49 158 160 29 80 82 241 235 165 202 19 189 12 238 60 166 
134 16 151 110 142 177 169 197 156 199 12 31 81 222 155 103 232 216 168 95 4 82 151 249 170 210 191 159 86 82 170 194 165 248 161 230 203 64 4 30 189 111 136 97 31 98 47 215 44 189 171 45 67 192 90 242 83 121 135 252 
134 31 52 86 77 22 122 106 98 102 44 199 211 122 98 97 127 130 129 254 174 146 229 233 74 36 52 88 191 85 71 34 215 166 182 82 102 177 236 131 50 32 231 141 190 139 227 51 223 247 11 108 60 180 183 51 133 105 243 254 
174 9 82 219 131 34 83 72 140 171 171 100 12 63 193 217 236 188 146 66 116 249 14 86 115 43 155 176 155 17 142 214 31 59 98 3 154 164 95 233 246 244 160 250 173 156 45 223 124 191 207 76 162 117 97 225 127 131 51 153 
82 208 236 226 131 228 169 0 55 155 121 35 147 108 247 245 191 212 145 14 181 203 68 173 249 104 112 13 186 21 116 255 26 62 25 169 126 218 25 244 26 184 233 7 200 91 189 199 90 23 244 178 196 14 202 157 95 204 53 249 
6 178 64 145 220 168 48 116 192 122 199 112 60 131 126 25 200 87 115 130 13 143 247 156 243 156 113 19 45 45 45 252 166 114 138 46 102 84 25 137 239 121 55 87 44 205 133 25 13 63 182 196 52 206 169 72 129 137 45 140 
161 51 202 76 97 251 222 196 197 207 7 248 28 68 22 234 26 19 108 0 89 8 216 15 181 200 155 168 69 101 47 112 222 221 166 194 231 82 154 206 6 132 62 203 54 55 181 65 106 186 147 230 195 64 243 4 130 62 137 254 
55 18 72 184 33 170 231 81 33 93 233 169 136 177 186 77 5 19 242 39 182 60 218 52 212 44 42 239 147 12 46 59 33 195 159 207 214 87 25 39 48 102 244 130 132 29 190 236 134 71 72 189 131 50 221 49 63 178 253 60 
29 81 183 186 111 194 193 189 243 42 95 175 21 11 168 104 25 165 186 218 130 112 43 119 37 74 157 80 232 173 32 127 11 171 229 4 72 34 84 57 127 236 142 223 242 69 82 8 182 232 209 47 195 177 219 112 213 232 120 116 
232 49 84 120 218 143 32 231 151 123 154 120 152 211 93 159 41 86 184 57 88 40 62 134 189 227 174 109 85 23 58 155 122 89 42 78 146 180 72 234 66 35 128 130 157 181 98 194 143 221 108 96 21 11 162 163 162 38 43 18 
110 51 155 87 53 160 250 242 170 213 10 176 38 202 150 152 69 243 33 166 23 43 196 77 242 247 93 45 43 85 240 50 137 209 95 217 74 80 50 94 11 88 127 77 226 176 30 134 231 169 150 181 75 203 40 234 66 241 136 196 
194 23 74 250 143 192 132 63 10 252 96 69 20 240 79 55 190 137 108 193 219 124 173 249 87 200 229 180 250 182 248 36 151 89 179 18 67 117 143 250 171 23 130 95 94 188 248 1 209 11 12 211 116 191 162 166 146 13 63 118 
58 224 94 72 59 254 50 109 210 247 143 99 248 135 198 161 36 101 75 107 2 97 43 248 194 216 196 103 149 197 70 147 64 118 154 167 147 229 27 100 51 47 187 27 239 157 160 33 163 5 202 160 227 244 132 120 175 129 66 86 
108 204 19 101 201 165 186 95 97 9 197 119 165 16 119 59 74 20 182 197 39 95 174 247 73 229 183 236 12 80 16 223 97 237 195 132 144 161 212 128 244 172 162 33 177 90 8 18 243 216 14 65 39 183 132 66 246 144 193 208 
43 95 231 183 9 68 17 53 83 184 117 47 50 76 32 171 64 99 224 48 41 59 232 225 63 243 186 39 176 100 202 169 23 194 31 215 205 234 246 115 128 218 234 83 1 54 96 65 148 4 85 25 18 149 151 36 5 192 46 145 
142 89 151 226 14 166 107 80 134 201 80 120 242 59 190 213 87 94 62 78 36 250 202 230 59 65 11 62 19 78 42 210 192 60 224 12 33 64 255 163 166 72 136 208 124 183 25 93 157 76 91 207 182 91 241 127 184 214 58 135 
232 186 32 203 39 218 61 82 21 65 70 126 124 32 142 223 32 84 134 255 117 224 131 113 17 82 39 148 4 156 37 123 248 222 119 209 160 101 172 180 120 193 178 251 255 162 230 80 98 175 30 72 98 22 7 244 44 215 213 223 
208 196 190 151 231 43 61 27 95 100 137 174 164 122 12 45 108 209 173 100 185 116 135 47 214 228 203 208 149 25 239 6 156 110 148 18 158 90 250 139 71 84 221 116 168 252 181 73 120 111 219 167 169 19 144 101 190 7 48 5 
26 248 239 172 30 39 96 204 0 185 137 182 127 10 247 100 75 161 231 223 206 121 133 14 222 251 243 215 23 211 254 19 201 241 41 253 178 95 37 78 165 76 189 29 210 10 186 181 180 12 14 83 90 223 126 242 11 237 189 166 
219 22 111 174 220 155 218 198 213 3 247 130 98 211 73 105 16 211 170 16 207 245 110 58 192 215 221 204 27 23 6 131 220 172 102 254 176 247 171 97 97 56 72 22 28 80 99 64 43 73 118 240 136 70 9 252 241 76 44 176 
104 33 61 131 116 148 33 171 251 72 198 64 226 20 66 98 75 178 170 216 27 44 116 32 80 248 6 22 114 114 253 120 115 35 188 194 173 225 73 105 141 227 178 192 99 149 100 215 50 37 14 100 130 87 164 36 140 42 111 79 
86 88 148 79 118 96 234 91 207 205 36 92 212 79 93 179 205 205 221 88 78 165 7 110 163 32 42 90 45 177 23 82 106 28 221 55 254 31 252 76 123 91 113 188 194 220 171 168 94 226 19 211 219 94 4 76 57 204 183 241 
122 60 242 119 179 138 41 247 239 22 132 132 77 69 88 2 167 239 120 242 70 36 217 17 15 80 71 124 157 224 203 178 222 157 186 138 57 242 0 46 186 237 58 236 152 107 108 31 132 0 3 162 98 231 31 148 149 183 116 66 
233 144 19 160 59 224 19 225 55 234 151 164 162 246 47 50 42 39 239 70 30 173 218 53 39 200 154 161 83 78 203 121 44 233 131 39 49 218 211 116 28 39 1 111 129 199 22 234 185 66 155 119 42 193 42 93 126 175 87 48 
249 83 245 176 97 111 30 184 196 76 77 233 104 165 33 106 231 192 248 53 53 134 60 71 193 10 159 46 32 135 14 201 241 134 170 187 252 153 49 196 179 212 252 168 90 180 90 245 83 167 216 53 130 248 153 73 15 187 82 231 
61 200 213 203 181 131 255 95 243 130 216 193 117 209 169 15 175 72 135 225 39 52 112 245 243 215 20 201 22 88 201 2 11 56 223 52 240 48 24 2 206 2 159 56 64 57 42 110 229 113 247 4 253 216 34 56 167 30 150 212 
139 109 48 87 8 171 170 247 98 17 168 217 220 60 132 197 147 141 210 169 209 124 38 44 16 48 246 86 132 205 113 197 149 6 19 190 160 224 197 83 255 254 160 254 144 153 182 193 69 32 116 70 107 239 185 75 226 94 147 165 
249 6 194 248 106 179 85 223 237 190 111 29 244 230 177 113 228 154 77 48 80 98 79 23 175 86 130 250 252 53 185 243 238 51 121 199 227 42 181 29 24 85 244 29 232 90 112 155 137 119 13 162 220 11 148 227 158 64 251 71 
219 147 137 147 46 168 117 186 177 142 29 186 80 18 107 56 51 189 174 86 2 45 29 38 163 201 52 27 79 27 153 174 179 69 127 251 204 206 165 4 40 212 207 245 36 65 9 235 5 117 190 252 163 55 40 162 246 201 190 230 
197 84 193 77 228 215 190 104 11 197 228 30 199 63 48 128 81 131 234 61 131 96 1 3 3 75 202 93 143 78 68 86 191 1 217 71 178 206 145 237 130 136 166 40 97 83 112 219 77 92 197 122 80 193 41 104 73 61 13 239 
142 203 233 140 93 204 38 10 152 234 53 245 109 47 188 237 79 185 53 69 176 193 171 157 35 221 64 165 11 217 48 140 49 108 117 217 41 107 182 254 181 190 47 149 252 212 217 218 56 173 159 128 179 55 141 86 51 35 91 16 
74 184 188 244 170 86 225 2 53 192 191 45 151 226 13 100 126 108 5 15 166 85 12 33 152 192 213 25 85 11 17 50 100 203 135 30 6 37 147 155 148 2 95 95 146 75 179 148 218 40 9 179 223 100 136 205 145 62 86 53 
78 30 56 107 28 129 101 240 0 77 118 242 218 155 96 11 111 233 14 124 194 97 87 251 55 116 4 29 62 111 221 103 247 162 125 194 94 191 227 105 46 35 107 231 1 123 175 247 136 208 255 248 36 86 144 111 128 148 241 140 
47 60 153 20 68 153 102 181 85 214 137 178 11 217 50 70 243 189 70 174 162 105 250 217 21 187 139 86 216 211 200 142 199 184 11 178 134 56 164 77 214 45 198 204 101 106 191 47 215 228 191 117 18 90 89 28 93 106 93 129 
194 148 93 87 243 45 218 114 209 223 105 25 63 94 63 186 27 181 225 4 33 52 168 167 135 150 102 170 114 69 72 72 239 16 31 28 19 210 19 109 27 108 40 241 27 93 20 170 156 230 198 142 124 253 217 245 198 68 10 194 
28 231 65 214 57 8 245 137 82 47 200 20 203 43 133 77 57 222 85 34 94 197 82 146 34 70 211 61 158 16 18 116 206 240 237 108 218 13 172 46 208 111 132 118 192 217 30 20 237 150 208 233 114 12 69 91 151 233 170 59 
146 54 66 120 105 56 46 154 243 201 150 209 68 128 65 35 220 133 87 230 182 98 40 8 187 75 79 116 46 194 26 53 255 221 228 80 240 172 45 51 4 2 16 188 50 162 142 91 29 247 220 106 69 148 17 240 237 92 45 25 
186 193 156 97 19 11 55 134 19 243 5 188 127 224 239 161 214 55 219 115 196 144 156 181 103 104 151 245 49 40 150 235 97 155 181 180 171 174 147 99 10 49 64 101 140 191 86 171 194 72 36 54 133 226 243 148 37 227 197 202 
103 10 205 246 8 12 8 110 78 50 134 131 146 10 78 109 56 192 23 40 103 19 94 135 124 156 167 163 249 79 250 55 17 49 82 198 158 85 26 226 113 75 202 80 45 115 167 114 178 11 40 178 5 131 223 104 221 3 226 251 
175 210 146 221 89 9 211 180 129 75 201 19 208 255 88 107 83 47 127 169 186 242 95 170 141 40 189 166 24 132 252 251 106 226 235 242 160 34 64 22 12 219 162 160 177 68 241 92 0 0 163 132 213 68 11 206 241 129 54 152 
232 25 231 250 87 16 16 248 201 66 191 151 208 2 77 193 185 207 201 212 28 112 210 140 113 143 86 96 93 84 144 87 11 52 242 230 196 213 194 163 235 175 254 182 245 247 230 86 3 42 147 144 70 50 236 102 125 98 177 206 
166 34 10 115 147 108 114 27 132 94 154 127 102 146 168 210 57 47 234 204 41 19 37 217 60 144 46 120 219 140 236 172 208 236 23 142 97 112 156 110 94 213 83 49 23 145 118 142 79 200 53 252 233 153 54 17 225 234 133 11 
189 108 120 171 222 171 238 63 78 34 203 117 166 113 39 69 229 27 22 241 191 160 12 126 66 45 67 211 225 57 133 156 214 15 76 23 11 52 13 156 248 152 85 244 115 86 210 112 184 92 5 44 142 8 222 240 183 160 35 251 
68 185 238 73 74 154 187 195 4 84 2 105 231 160 199 255 14 159 195 228 249 28 117 170 26 167 210 148 2 168 15 6 122 225 194 239 151 162 144 147 137 134 250 31 165 205 109 170 85 167 193 197 72 75 27 100 221 71 58 140 
143 10 104 50 38 70 75 74 195 249 48 133 189 96 196 35 70 9 165 134 54 204 148 199 152 127 87 34 13 102 128 13 89 233 233 194 25 123 226 247 33 109 118 20 140 185 245 40 122 169 102 172 103 110 95 15 113 229 190 234 
51 159 36 137 4 252 86 181 232 86 135 56 253 49 156 24 92 231 178 249 18 52 215 132 209 117 144 33 21 64 12 17 81 234 114 126 232 191 2 174 19 88 63 114 69 32 93 24 188 164 49 7 124 192 98 209 207 191 222 131 
5 250 158 182 181 73 207 35 17 239 120 47 188 213 12 130 98 4 30 157 106 27 242 205 26 139 122 119 105 66 41 180 126 234 79 80 153 176 43 220 239 149 9 28 43 71 214 230 240 25 158 58 88 204 23 204 148 89 11 3 
26 220 149 91 74 250 235 247 25 139 179 86 79 77 16 71 169 110 95 19 92 132 211 208 8 2 82 72 156 187 140 214 61 46 177 163 255 207 218 230 133 177 202 51 221 178 208 64 43 201 107 235 12 97 179 95 157 122 247 87 
199 70 4 95 20 28 32 209 31 45 42 218 75 218 231 139 195 115 42 61 67 181 174 249 112 91 148 249 125 55 41 152 43 59 8 38 48 220 206 113 232 121 183 22 55 40 253 18 195 181 148 253 233 138 172 45 8 37 146 173 
161 120 40 230 164 251 35 147 127 27 13 41 133 253 11 179 127 158 115 59 190 51 242 246 104 86 254 48 31 130 53 91 37 213 5 198 129 218 2 99 104 250 68 104 86 172 77 138 75 29 87 151 128 149 183 23 49 160 14 114 
126 245 128 85 203 38 232 92 215 218 206 239 19 118 60 101 240 189 111 110 169 194 80 179 67 245 141 209 209 171 39 192 73 3 154 175 136 8 180 224 150 129 39 9 151 132 242 20 153 131 49 30 162 16 200 60 181 112 220 82 
113 124 199 82 155 105 165 143 2 46 29 26 72 71 117 133 101 221 149 119 34 105 186 94 151 121 125 1 38 253 178 169 243 8 248 79 24 232 96 78 67 155 84 26 152 53 92 93 195 168 223 54 96 198 21 255 113 90 172 58 
209 15 251 193 99 209 206 204 31 30 235 214 187 176 244 56 112 75 152 56 132 107 96 99 58 99 77 37 238 7 203 54 192 106 143 82 71 59 197 81 127 20 1 252 52 132 61 83 28 141 94 196 11 197 19 0 130 98 111 88 
49 238 88 199 181 170 25 245 138 237 107 145 63 52 54 228 227 148 109 209 110 78 180 112 64 115 183 227 57 148 168 201 141 238 17 165 107 1 222 206 157 251 162 81 138 118 133 34 59 114 234 237 52 90 118 32 70 207 87 24 
104 155 93 202 98 131 123 41 224 33 11 247 235 146 247 45 205 133 74 163 187 215 102 113 253 172 187 31 90 178 189 1 120 153 110 118 24 124 232 234 45 156 237 249 246 79 102 56 244 217 0 23 172 19 51 128 88 36 213 40 
137 216 197 110 123 39 40 203 255 127 127 246 19 204 53 248 129 43 164 79 138 11 104 147 8 77 148 255 224 175 193 193 220 175 215 49 35 45 98 11 0 132 215 22 22 150 81 65 91 131 95 230 132 187 128 130 151 39 153 116 
235 163 141 152 82 165 149 124 2 12 181 186 75 35 45 107 142 211 47 183 56 46 235 68 53 215 192 231 158 22 166 41 88 183 191 132 160 213 7 213 39 127 148 7 197 14 245 43 199 113 2 63 13 96 210 198 32 221 148 41 
34 64 244 110 118 72 121 27 72 13 224 176 106 24 92 234 199 10 225 251 96 199 95 49 153 13 252 124 164 181 164 154 200 116 212 92 230 116 212 46 243 156 154 111 34 189 70 34 204 227 39 72 216 79 221 45 78 139 248 181 
3 46 117 84 185 158 198 203 109 6 113 134 132 107 126 26 59 156 238 124 225 153 117 69 137 238 68 163 66 153 45 182 74 236 9 228 137 77 8 58 245 38 158 46 137 232 115 148 63 91 75 101 182 21 151 217 191 181 54 197 
163 48 205 239 45 117 180 236 78 190 25 40 238 30 145 224 61 152 204 219 215 170 31 176 154 188 214 130 11 15 249 93 57 100 143 139 94 223 30 94 253 172 147 102 151 19 237 45 53 154 42 59 184 126 53 42 81 34 254 69 
87 69 251 37 33 216 182 31 9 56 199 196 61 114 209 98 92 74 47 250 159 63 142 220 161 248 47 125 207 165 251 176 52 96 214 254 123 235 212 63 30 249 177 118 41 5 102 218 3 161 194 176 47 153 43 193 32 213 66 98 
180 174 58 26 39 21 129 70 249 186 175 199 71 232 189 5 107 62 14 249 214 221 50 121 179 99 11 58 159 38 104 17 23 167 144 41 51 116 39 195 168 28 107 1 93 193 206 201 63 177 80 232 173 178 46 127 137 20 50 138 
144 238 8 51 17 185 11 128 189 201 64 220 31 64 16 108 121 67 155 57 89 72 188 113 37 253 104 157 203 159 183 31 255 60 173 58 28 185 83 14 44 96 119 231 143 141 87 103 188 74 80 73 1 86 53 134 42 100 64 105 
254 196 33 22 238 146 137 49 49 41 43 243 27 124 199 126 217 100 77 92 70 135 30 243 141 8 131 203 230 95 154 189 73 101 95 157 11 60 214 133 123 83 201 74 92 238 114 96 144 46 128 118 61 82 114 54 222 137 28 237 
84 50 132 166 16 171 112 247 114 225 98 54 209 221 33 95 26 240 217 66 249 221 137 108 190 5 217 41 192 242 9 12 147 167 22 255 22 190 109 206 166 195 151 137 161 169 207 161 17 94 221 86 178 178 93 48 196 138 183 66 
40 121 108 11 9 82 115 180 222 52 21 20 20 228 153 117 15 114 52 12 15 208 109 136 207 181 38 93 106 37 55 107 184 199 132 78 144 64 20 205 254 187 85 71 123 194 95 88 210 26 164 14 241 197 169 85 56 170 68 214 
78 25 86 167 168 20 138 138 16 168 182 58 251 81 237 100 200 185 146 27 101 37 124 52 19 24 104 75 53 5 153 125 215 202 153 182 16 2 9 168 20 137 185 101 72 128 84 241 170 229 81 1 204 22 75 199 215 111 49 85 
218 213 1 33 0 190 232 218 231 2 245 148 218 39 25 17 149 208 104 17 25 225 166 158 33 112 220 25 177 223 229 34 76 244 135 165 106 134 201 194 185 186 184 2 163 102 31 26 173 126 162 214 82 116 121 230 127 158 49 173 
35 172 104 94 96 93 2 67 127 71 196 79 69 165 91 161 9 5 108 206 134 72 28 51 205 62 254 43 177 63 16 123 181 204 190 199 179 141 16 194 254 27 134 129 107 58 112 191 48 231 148 114 213 234 168 83 75 60 53 10 
189 223 201 129 91 61 143 168 54 187 84 217 19 77 48 122 244 230 147 115 75 225 80 158 44 67 140 38 69 244 78 234 237 21 240 10 63 24 221 141 52 185 153 130 188 1 56 13 199 96 99 248 230 199 140 240 154 142 109 217 
125 241 160 241 192 237 129 41 167 229 21 223 88 223 85 64 102 62 17 97 68 111 243 207 147 128 131 239 190 10 21 15 19 213 14 154 165 103 106 71 237 225 165 230 244 0 169 114 73 108 141 207 87 150 27 221 8 24 75 200 
120 161 171 82 162 57 16 39 177 136 184 77 105 93 198 217 178 27 92 58 143 248 245 240 151 53 31 172 173 205 25 203 131 81 72 229 185 253 55 85 248 32 160 207 174 187 52 155 202 202 207 156 55 37 138 123 114 161 128 196 
3 241 231 138 80 46 175 67 111 170 47 80 219 8 193 105 104 202 41 222 135 193 136 113 13 228 222 193 227 204 80 63 218 13 15 151 144 153 255 92 103 67 191 157 201 249 137 116 160 124 37 66 216 130 77 107 246 44 251 248 
179 34 145 189 93 24 19 95 65 144 171 86 131 97 195 85 88 216 108 110 203 78 28 252 10 78 125 212 113 210 239 205 245 208 21 158 128 60 192 66 139 87 118 241 97 189 154 42 94 194 205 232 204 248 25 142 239 255 240 212 
93 181 37 80 152 134 50 155 193 191 156 11 118 41 137 66 149 18 90 75 55 102 99 128 227 115 249 200 168 237 106 21 242 157 74 37 28 41 183 43 245 169 122 172 211 77 151 43 218 31 68 242 226 21 228 6 252 159 205 3 
22 106 97 233 20 68 65 88 205 251 179 92 10 96 15 22 111 133 105 23 232 12 77 42 45 149 142 196 25 107 119 248 45 186 224 156 58 223 97 124 118 197 193 240 189 46 241 36 41 82 71 6 44 166 227 51 249 208 70 114 
52 68 66 108 32 94 180 56 131 75 226 119 210 72 147 245 119 126 78 178 59 134 12 102 190 54 186 45 149 215 10 151 66 172 72 174 240 32 122 219 31 122 128 29 250 36 91 0 161 93 210 8 252 184 138 183 3 153 74 78 