P3
25 25
255
255 1  2
255 1  2
255 1  2
255 1  2
255 1  2
255 1  2
255 1  2
255 1  2
255 1  2
255 1  2
255 1  2
255 1  2
255 1  2
255 1  2
255 1  2
255 1  2
255 1  2
255 1  2
255 1  2
255 1  2
255 1  2
255 1  2
255 1  2
255 1  2
255 1  2

108 112  27
108 112  27
108 112  27
108 112  27
108 112  27
108 112  27
108 112  27
108 112  27
108 112  27
108 112  27
108 112  27
108 112  27
108 112  27
108 112  27
108 112  27
108 112  27
108 112  27
108 112  27
108 112  27
108 112  27
108 112  27
108 112  27
108 112  27
108 112  27
108 112  27

108 112  27
108 112  27
108 112  27
108 112  27
108 112  27
108 112  27
108 112  27
108 112  27
108 112  27
108 112  27
108 112  27
108 112  27
108 112  27
108 112  27
108 112  27
108 112  27
108 112  27
108 112  27
108 112  27
108 112  27
108 112  27
108 112  27
108 112  27
108 112  27
108 112  27

108 112  27
108 112  27
108 112  27
108 112  27
108 112  27
108 112  27
108 112  27
108 112  27
108 112  27
108 112  27
108 112  27
108 112  27
108 112  27
108 112  27
108 112  27
108 112  27
108 112  27
108 112  27
108 112  27
108 112  27
108 112  27
108 112  27
108 112  27
108 112  27
108 112  27

108 112  27
108 112  27
108 112  27
108 112  27
108 112  27
108 112  27
108 112  27
108 112  27
108 112  27
108 112  27
108 112  27
108 112  27
108 112  27
108 112  27
108 112  27
108 112  27
108 112  27
108 112  27
108 112  27
108 112  27
108 112  27
108 112  27
108 112  27
108 112  27
108 112  27

108 112  27
108 112  27
108 112  27
108 112  27
108 112  27
108 112  27
108 112  27
108 112  27
108 112  27
108 112  27
108 112  27
108 112  27
108 112  27
108 112  27
108 112  27
108 112  27
108 112  27
108 112  27
108 112  27
108 112  27
108 112  27
108 112  27
108 112  27
108 112  27
108 112  27

108 112  27
108 112  27
108 112  27
108 112  27
108 112  27
108 112  27
108 112  27
108 112  27
108 112  27
108 112  27
108 112  27
108 112  27
108 112  27
108 112  27
108 112  27
108 112  27
108 112  27
108 112  27
108 112  27
108 112  27
108 112  27
108 112  27
108 112  27
108 112  27
108 112  27

108 112  27
108 112  27
108 112  27
108 112  27
108 112  27
108 112  27
108 112  27
108 112  27
108 112  27
108 112  27
108 112  27
108 112  27
108 112  27
108 112  27
108 112  27
108 112  27
108 112  27
108 112  27
108 112  27
108 112  27
108 112  27
108 112  27
108 112  27
108 112  27
108 112  27

108 112  27
108 112  27
108 112  27
108 112  27
108 112  27
108 112  27
108 112  27
108 112  27
108 112  27
108 112  27
108 112  27
108 112  27
108 112  27
108 112  27
108 112  27
108 112  27
108 112  27
108 112  27
108 112  27
108 112  27
108 112  27
108 112  27
108 112  27
108 112  27
108 112  27

108 112  27
108 112  27
108 112  27
108 112  27
108 112  27
108 112  27
108 112  27
108 112  27
108 112  27
108 112  27
108 112  27
108 112  27
108 112  27
108 112  27
108 112  27
108 112  27
108 112  27
108 112  27
108 112  27
108 112  27
108 112  27
108 112  27
108 112  27
108 112  27
108 112  27

108 112  27
108 112  27
108 112  27
108 112  27
108 112  27
108 112  27
108 112  27
108 112  27
108 112  27
108 112  27
108 112  27
108 112  27
108 112  27
108 112  27
108 112  27
108 112  27
108 112  27
108 112  27
108 112  27
108 112  27
108 112  27
108 112  27
108 112  27
108 112  27
108 112  27

108 112  27
108 112  27
108 112  27
108 112  27
108 112  27
108 112  27
108 112  27
108 112  27
108 112  27
108 112  27
108 112  27
108 112  27
108 112  27
108 112  27
108 112  27
108 112  27
108 112  27
108 112  27
108 112  27
108 112  27
108 112  27
108 112  27
108 112  27
108 112  27
108 112  27

108 112  27
108 112  27
108 112  27
108 112  27
108 112  27
108 112  27
108 112  27
108 112  27
108 112  27
108 112  27
108 112  27
108 112  27
108 112  27
108 112  27
108 112  27
108 112  27
108 112  27
108 112  27
108 112  27
108 112  27
108 112  27
108 112  27
108 112  27
108 112  27
108 112  27

108 112  27
108 112  27
108 112  27
108 112  27
108 112  27
108 112  27
108 112  27
108 112  27
108 112  27
108 112  27
108 112  27
108 112  27
108 112  27
108 112  27
108 112  27
108 112  27
108 112  27
108 112  27
108 112  27
108 112  27
108 112  27
108 112  27
108 112  27
108 112  27
108 112  27

108 112  27
108 112  27
108 112  27
108 112  27
108 112  27
108 112  27
108 112  27
108 112  27
108 112  27
108 112  27
108 112  27
108 112  27
108 112  27
108 112  27
108 112  27
108 112  27
108 112  27
108 112  27
108 112  27
108 112  27
108 112  27
108 112  27
108 112  27
108 112  27
108 112  27

108 112  27
108 112  27
108 112  27
108 112  27
108 112  27
108 112  27
108 112  27
108 112  27
108 112  27
108 112  27
108 112  27
108 112  27
108 112  27
108 112  27
108 112  27
108 112  27
108 112  27
108 112  27
108 112  27
108 112  27
108 112  27
108 112  27
108 112  27
108 112  27
108 112  27

108 112  27
108 112  27
108 112  27
108 112  27
108 112  27
108 112  27
108 112  27
108 112  27
108 112  27
108 112  27
108 112  27
108 112  27
108 112  27
108 112  27
108 112  27
108 112  27
108 112  27
108 112  27
108 112  27
108 112  27
108 112  27
108 112  27
108 112  27
108 112  27
108 112  27

108 112  27
108 112  27
108 112  27
108 112  27
108 112  27
108 112  27
108 112  27
108 112  27
108 112  27
108 112  27
108 112  27
108 112  27
108 112  27
108 112  27
108 112  27
108 112  27
108 112  27
108 112  27
108 112  27
108 112  27
108 112  27
108 112  27
108 112  27
108 112  27
108 112  27

108 112  27
108 112  27
108 112  27
108 112  27
108 112  27
108 112  27
108 112  27
108 112  27
108 112  27
108 112  27
108 112  27
108 112  27
108 112  27
108 112  27
108 112  27
108 112  27
108 112  27
108 112  27
108 112  27
108 112  27
108 112  27
108 112  27
108 112  27
108 112  27
108 112  27

108 112  27
108 112  27
108 112  27
108 112  27
108 112  27
108 112  27
108 112  27
108 112  27
108 112  27
108 112  27
108 112  27
108 112  27
108 112  27
108 112  27
108 112  27
108 112  27
108 112  27
108 112  27
108 112  27
108 112  27
108 112  27
108 112  27
108 112  27
108 112  27
108 112  27

108 112  27
108 112  27
108 112  27
108 112  27
108 112  27
108 112  27
108 112  27
108 112  27
108 112  27
108 112  27
108 112  27
108 112  27
108 112  27
108 112  27
108 112  27
108 112  27
108 112  27
108 112  27
108 112  27
108 112  27
108 112  27
108 112  27
108 112  27
108 112  27
108 112  27

108 112  27
108 112  27
108 112  27
108 112  27
108 112  27
108 112  27
108 112  27
108 112  27
108 112  27
108 112  27
108 112  27
108 112  27
108 112  27
108 112  27
108 112  27
108 112  27
108 112  27
108 112  27
108 112  27
108 112  27
108 112  27
108 112  27
108 112  27
108 112  27
108 112  27

108 112  27
108 112  27
108 112  27
108 112  27
108 112  27
108 112  27
108 112  27
108 112  27
108 112  27
108 112  27
108 112  27
108 112  27
108 112  27
108 112  27
108 112  27
108 112  27
108 112  27
108 112  27
108 112  27
108 112  27
108 112  27
108 112  27
108 112  27
108 112  27
108 112  27

108 112  27
108 112  27
108 112  27
108 112  27
108 112  27
108 112  27
108 112  27
108 112  27
108 112  27
108 112  27
108 112  27
108 112  27
108 112  27
108 112  27
108 112  27
108 112  27
108 112  27
108 112  27
108 112  27
108 112  27
108 112  27
108 112  27
108 112  27
108 112  27
108 112  27

108 112  27
108 112  27
108 112  27
108 112  27
108 112  27
108 112  27
108 112  27
108 112  27
108 112  27
108 112  27
108 112  27
108 112  27
108 112  27
108 112  27
108 112  27
108 112  27
108 112  27
108 112  27
108 112  27
108 112  27
108 112  27
108 112  27
108 112  27
108 112  27
108 112  27

