P3
10 1
255
45 207 70
41 4 180
120 216 104
167 255 63
43 241 252
217 122 150
9 44 165
87 116 100
196 175 21
40 164 233

