P3
2 2
255
45 207 70
41 255 180

120 216 104
167 255 63

