P3
50 50
255
45 207 70
41 4 180
120 216 104
167 255 63
43 241 252
217 122 150
9 44 165
87 116 100
196 175 21
40 164 233
87 219 94
32 251 56
168 78 166
20 147 37
86 36 68
223 89 141
67 123 190
144 22 137
157 126 119
198 47 38
152 136 245
180 48 212
52 157 58
13 15 189
47 161 247
15 217 104
244 217 60
168 53 229
143 42 205
194 64 193
207 82 113
106 114 41
35 176 91
27 163 42
130 136 68
25 14 48
242 107 163
174 15 132
205 73 214
131 66 23
231 163 57
147 115 198
230 241 138
254 33 27
25 126 228
117 142 198
135 133 88
221 36 230
157 93 68
64 139 90

35 94 169
239 236 63
145 156 122
65 23 24
114 235 6
242 145 238
184 108 190
217 52 247
52 35 6
122 51 112
151 215 82
18 245 126
210 148 149
102 6 35
89 242 111
250 231 236
169 230 171
170 57 191
186 95 165
177 174 36
129 97 138
120 69 228
60 71 120
57 71 199
157 217 74
175 97 23
59 189 106
245 208 68
91 145 205
95 117 95
65 184 213
56 7 254
216 90 177
47 70 188
142 53 42
56 204 42
175 175 98
15 134 117
85 116 28
112 163 9
227 95 190
179 20 122
39 88 39
107 16 216
177 16 154
174 5 8
56 132 214
10 135 85
122 163 117
53 191 62

113 108 132
39 119 193
209 194 224
150 101 32
100 109 116
7 11 93
135 96 222
183 93 139
132 54 224
187 191 151
133 162 10
193 90 72
28 201 197
137 105 210
170 50 207
113 200 215
20 81 162
6 141 29
205 237 201
250 201 24
87 5 103
253 137 148
234 83 189
255 68 220
165 32 213
163 76 142
148 147 161
36 116 205
26 4 163
127 65 255
18 79 66
152 203 115
246 249 84
179 212 236
181 30 130
127 86 99
123 96 167
170 127 172
225 240 228
56 77 102
58 30 183
80 170 103
56 224 238
182 102 140
71 131 7
195 100 195
12 234 96
72 238 102
131 171 39
115 92 148

24 215 73
31 48 129
33 205 13
217 70 113
177 154 114
42 37 17
140 129 26
212 45 52
170 104 172
118 114 129
135 139 43
90 47 38
190 222 236
191 56 173
176 223 163
13 41 200
111 223 120
6 184 132
10 114 162
42 76 174
119 199 138
191 125 0
197 31 199
24 68 24
236 95 102
241 156 106
192 216 48
77 79 58
16 192 214
123 97 120
44 226 5
215 44 132
201 170 216
45 45 177
160 226 84
163 205 6
1 99 19
111 16 137
68 150 14
77 239 194
100 242 180
71 158 128
93 119 131
66 26 25
158 25 249
173 78 227
26 16 85
191 136 83
143 136 252
16 58 143

251 130 83
134 18 94
10 50 188
6 212 248
255 192 240
207 16 212
29 53 250
206 78 45
23 1 120
199 246 5
140 40 169
141 59 243
91 170 243
87 27 4
135 132 168
126 115 126
181 209 33
93 53 240
235 41 80
193 88 6
239 46 68
146 122 24
187 66 182
85 116 181
11 49 7
97 200 160
74 27 13
136 138 203
90 72 138
217 99 175
244 10 73
135 187 195
135 137 69
73 128 231
177 199 89
201 81 11
137 209 190
0 214 150
19 152 95
252 254 233
33 206 189
89 111 66
64 197 70
72 73 36
113 237 115
34 158 23
234 64 115
132 150 16
175 160 180
133 72 174

165 106 6
18 76 245
64 179 233
87 81 139
115 183 198
171 179 204
187 254 215
57 81 104
109 206 93
160 90 246
208 174 127
178 63 111
206 32 111
62 107 139
43 33 223
42 97 200
59 158 103
135 146 238
26 210 9
130 20 49
155 246 14
39 65 53
173 233 133
22 235 69
239 99 5
71 77 101
244 253 52
163 178 114
253 79 210
46 172 81
182 225 112
46 23 76
111 104 238
160 55 202
73 23 234
114 137 111
89 149 36
195 192 114
137 195 95
131 115 105
112 96 33
124 228 233
169 134 110
157 98 222
163 168 36
221 239 117
153 19 174
161 178 0
143 142 64
78 82 41

212 99 155
238 112 92
211 13 209
165 160 226
50 38 255
81 134 136
139 243 26
127 66 174
156 183 117
197 21 72
191 146 141
89 242 115
66 181 152
30 140 9
113 219 81
64 100 88
78 190 20
223 183 162
134 157 75
180 2 141
182 210 209
3 222 87
20 193 2
228 199 54
114 213 117
167 139 75
77 255 151
204 132 48
171 220 158
132 175 59
17 97 201
138 237 239
147 164 204
29 42 189
227 10 89
26 123 183
130 199 5
251 26 144
79 130 130
202 153 50
109 180 105
35 113 22
164 56 239
49 106 98
139 218 20
226 253 5
163 178 186
164 34 43
152 102 54
179 227 20

164 170 3
94 74 116
211 180 176
106 139 5
23 26 146
230 217 153
166 14 114
77 156 82
252 89 65
28 30 132
83 61 66
161 234 247
5 23 159
200 225 253
66 171 43
161 143 240
198 158 203
40 237 45
127 204 30
248 19 218
231 51 254
113 129 251
195 110 149
75 145 106
28 145 19
165 131 63
251 179 49
236 188 232
170 199 167
169 193 227
72 18 67
26 123 80
47 76 117
143 51 46
253 241 74
41 12 211
218 73 187
232 239 15
70 189 233
55 86 38
61 25 183
111 137 78
144 191 20
85 91 179
234 22 78
134 83 110
40 229 25
61 106 148
7 27 88
21 169 37

200 58 132
124 62 195
141 61 254
181 35 127
100 106 51
242 148 174
15 236 62
200 180 223
159 83 102
174 171 144
189 158 62
157 149 143
36 243 118
77 66 10
179 94 60
48 130 166
4 219 65
77 223 23
250 91 47
170 154 240
103 46 229
247 2 220
245 51 127
231 146 117
92 65 181
42 113 19
230 108 128
247 139 152
67 130 112
96 118 83
133 140 201
120 224 164
112 99 30
102 159 118
47 226 149
92 233 65
153 102 150
46 28 244
97 115 40
66 34 62
156 136 18
176 202 183
133 29 249
142 255 3
110 86 112
144 71 165
19 163 119
111 141 233
168 89 6
92 192 135

253 4 222
87 237 13
196 24 217
185 40 179
105 123 219
10 32 234
160 128 52
111 37 17
30 4 47
211 123 231
142 226 35
161 207 237
56 210 22
225 34 140
173 53 138
152 61 206
142 103 107
54 190 100
54 127 138
182 131 188
120 1 86
181 66 253
159 226 66
173 208 157
0 68 94
142 100 55
183 135 93
42 210 194
201 94 218
232 150 94
194 177 98
42 248 163
233 27 103
138 59 196
82 73 131
8 63 96
60 9 164
177 93 158
41 164 75
208 13 34
33 228 216
28 65 179
95 252 224
54 102 66
237 187 246
131 62 89
138 127 26
80 249 73
97 19 176
170 79 74

179 93 185
21 11 194
182 253 101
41 122 221
78 190 110
170 182 182
98 233 175
4 55 156
170 195 22
96 90 194
39 238 194
207 52 3
123 80 241
184 179 31
239 20 135
88 220 32
209 78 206
129 97 87
117 139 20
239 212 126
149 196 165
245 107 97
66 99 173
237 166 31
177 201 178
112 116 91
11 30 111
221 41 216
153 63 216
134 94 237
122 37 13
66 80 42
60 92 7
231 15 197
3 54 98
119 195 54
188 85 66
23 77 81
249 117 154
239 249 124
229 26 66
110 116 88
156 104 69
29 175 163
125 149 170
11 82 77
9 120 142
96 238 237
92 29 180
142 250 22

123 167 156
252 148 109
71 118 27
24 67 186
1 101 199
63 161 239
119 176 165
53 231 119
88 241 108
105 219 225
168 233 135
66 118 50
226 208 150
49 186 175
194 183 252
20 59 82
75 186 25
178 76 115
217 188 90
222 207 65
13 151 238
53 57 78
201 96 120
128 197 15
241 46 69
179 103 18
36 156 94
4 184 135
153 98 209
205 24 216
0 192 32
33 125 109
30 75 184
33 85 59
90 87 252
158 105 19
105 149 87
182 219 102
242 234 100
119 218 14
180 107 75
65 50 18
111 179 166
249 149 238
1 52 187
222 16 141
16 178 31
8 181 145
254 180 103
145 27 138

231 248 4
136 112 138
196 4 76
235 153 19
73 20 98
176 249 212
146 142 130
142 51 103
177 7 59
65 163 152
18 246 25
102 73 133
73 254 207
111 20 202
147 18 187
156 147 165
146 148 75
183 151 120
112 160 217
105 46 26
255 243 224
179 1 229
226 21 115
200 214 139
67 221 113
228 51 61
186 88 62
113 160 29
217 193 91
237 87 8
152 65 140
215 175 122
234 2 8
81 241 9
1 46 215
159 207 177
193 71 221
250 172 130
200 85 174
230 196 55
124 201 75
240 247 41
149 220 27
148 125 168
213 6 51
168 83 130
121 149 167
146 184 72
79 117 1
240 123 66

97 109 68
176 44 212
107 241 236
103 34 16
71 235 226
90 25 163
204 254 228
93 184 109
149 37 32
88 197 249
204 183 97
233 219 109
29 78 127
193 161 191
24 211 100
64 53 29
74 255 232
161 163 74
196 140 30
61 102 106
2 114 121
98 6 203
37 238 253
171 21 39
148 189 226
112 127 38
234 25 85
179 233 27
220 201 250
243 56 160
124 230 81
213 204 66
51 87 65
233 152 105
68 28 228
142 129 255
170 113 194
241 219 167
175 76 190
55 82 231
215 95 149
215 40 145
167 237 12
82 19 106
159 112 60
110 75 210
78 109 15
72 203 86
164 148 194
81 249 152

238 221 209
46 133 221
19 134 170
58 131 97
199 103 159
84 45 49
116 183 72
199 170 37
1 49 183
229 84 151
52 92 133
101 183 255
132 4 234
133 90 238
246 105 88
68 243 142
44 44 78
25 83 136
250 207 250
208 105 143
73 228 126
24 197 24
173 160 247
139 5 204
70 109 189
234 21 106
191 192 27
72 99 160
132 232 191
92 136 24
126 244 63
100 204 71
188 138 60
89 51 184
117 136 44
103 199 94
42 210 228
237 140 253
49 221 100
44 168 46
96 176 53
190 143 189
105 7 58
50 40 140
70 161 55
78 35 134
44 152 34
143 244 188
170 192 123
105 52 240

14 237 192
47 99 191
89 25 109
213 62 93
74 80 184
252 106 156
186 25 196
30 112 99
44 178 29
112 162 3
57 120 166
141 22 75
138 205 133
49 52 79
84 27 99
19 89 237
139 86 37
202 188 143
243 71 103
115 241 200
252 172 252
251 60 67
165 7 233
163 203 99
213 239 0
44 241 52
255 213 161
71 96 65
48 248 127
253 19 0
123 200 39
202 148 247
100 139 42
225 155 186
185 185 151
202 35 235
8 162 81
30 122 152
84 219 188
56 94 156
43 241 66
38 99 62
233 119 53
31 133 0
163 45 185
250 100 77
96 69 38
124 140 11
226 87 0
84 19 93

219 31 42
184 223 188
225 138 252
103 250 252
92 96 12
147 24 184
70 253 131
155 11 174
70 131 211
235 156 119
153 254 197
242 2 220
233 243 34
235 44 224
235 88 193
4 245 223
10 92 212
51 231 187
139 139 57
228 176 157
191 200 243
159 246 127
18 57 217
53 70 119
126 117 226
169 221 31
177 59 176
55 178 220
219 200 104
116 4 203
119 13 137
55 162 11
218 193 27
59 238 90
102 60 224
130 18 156
143 73 213
234 32 142
253 53 9
39 39 109
246 230 253
179 195 203
150 179 242
203 55 31
22 19 232
92 111 124
187 20 21
163 81 35
106 168 201
139 220 115

229 191 208
195 29 95
11 80 198
13 94 91
208 49 211
91 213 48
195 58 228
43 180 17
135 242 158
221 146 245
229 99 45
150 140 152
244 181 246
8 196 240
95 103 147
5 30 230
48 96 44
72 12 48
90 92 97
18 209 165
181 23 66
192 207 160
37 25 17
172 54 83
86 244 224
170 105 190
83 139 76
4 253 51
225 160 74
106 99 205
37 160 229
223 4 78
181 167 90
63 177 9
196 101 7
205 251 50
108 67 19
181 33 193
212 214 251
41 185 101
200 220 205
174 159 63
148 186 188
51 117 27
243 226 0
237 195 175
127 239 219
130 40 208
162 235 220
169 140 167

125 237 144
66 20 244
163 241 27
138 132 40
19 161 9
23 219 197
104 165 117
64 20 173
113 184 21
154 19 16
24 33 174
69 157 42
101 237 105
46 228 10
75 95 232
119 120 212
255 164 95
242 167 130
135 121 195
38 102 211
147 167 45
197 77 128
197 201 75
124 151 116
199 61 195
75 133 195
67 14 239
199 48 113
39 158 172
89 208 29
128 158 215
145 21 237
234 175 234
55 127 243
117 61 141
195 229 146
31 250 42
254 48 159
28 241 212
148 250 190
16 92 161
38 254 200
145 20 75
19 12 79
231 38 103
193 84 209
201 174 82
170 218 164
114 131 171
144 223 16

223 86 163
197 175 217
22 102 138
218 16 67
103 142 160
119 96 178
247 23 123
135 237 79
39 64 177
92 77 33
81 239 177
72 57 212
147 132 94
248 203 2
92 99 126
239 4 230
89 252 117
180 210 23
179 27 64
211 93 80
229 129 148
211 167 116
247 5 135
114 142 200
179 107 118
75 61 203
172 27 197
129 83 30
69 1 34
197 228 158
129 118 103
252 246 177
209 174 94
70 117 138
28 48 240
20 119 184
6 183 124
119 11 217
9 23 195
53 57 90
155 156 233
127 106 165
49 91 10
255 50 100
71 106 131
226 48 23
230 125 201
95 165 37
250 14 95
148 134 139

64 8 232
4 69 102
191 186 237
18 239 226
94 122 60
140 136 59
220 166 102
168 29 104
170 31 61
90 218 175
236 99 139
236 133 197
83 29 7
253 75 19
217 130 217
95 68 91
127 142 200
12 89 187
84 74 107
70 211 231
33 151 73
62 65 227
145 3 3
61 73 22
106 35 205
248 144 16
80 89 150
116 239 168
134 209 145
51 38 104
135 140 94
118 195 99
37 84 205
153 155 179
137 238 234
31 118 134
72 37 174
57 21 22
37 237 191
211 220 223
127 84 98
139 171 106
34 121 87
2 207 147
227 108 93
15 116 138
24 220 135
57 88 251
165 131 206
96 135 160

60 124 135
229 34 77
115 104 169
36 30 215
55 172 67
6 129 255
65 26 139
80 120 91
78 17 155
245 150 148
185 62 204
131 191 16
178 36 219
51 237 166
170 178 233
207 241 124
113 162 159
71 42 29
209 122 238
116 55 35
35 42 43
11 206 152
34 243 160
6 36 69
167 124 223
55 61 147
16 214 252
150 117 216
209 163 187
215 69 203
240 146 207
207 89 227
196 107 40
224 143 76
23 190 143
250 23 157
58 186 220
211 221 145
206 113 203
164 182 109
105 129 183
221 91 56
7 86 131
143 205 114
178 112 101
82 46 235
235 121 203
173 202 158
76 189 88
34 206 130

127 101 204
232 59 8
169 35 231
210 80 95
150 147 63
202 18 56
182 49 245
143 243 253
180 117 154
29 242 245
239 123 248
127 150 86
53 202 107
82 67 209
235 216 154
143 229 80
214 22 216
93 155 159
4 221 251
88 194 224
43 124 149
235 12 132
247 67 168
223 225 139
156 7 176
121 132 32
69 82 137
243 153 84
208 51 215
164 174 189
1 202 204
92 118 135
150 176 125
101 43 83
137 148 89
148 165 31
156 123 99
58 130 30
41 230 222
108 255 74
176 55 110
139 93 223
133 156 69
37 111 209
42 208 217
54 100 44
148 229 203
99 34 71
4 36 184
115 42 211

1 228 223
39 140 32
171 129 238
76 135 85
30 23 53
240 242 51
214 73 33
0 164 49
179 79 158
184 77 132
250 35 136
36 58 106
227 46 77
126 9 206
105 112 58
96 59 132
88 75 157
85 221 159
101 228 19
121 149 164
155 106 60
26 158 214
3 6 150
100 45 93
81 172 128
214 47 142
218 233 168
54 28 223
96 201 1
49 121 255
73 183 216
221 76 69
223 95 235
219 245 216
9 130 90
252 208 127
116 88 156
83 75 165
216 194 92
55 38 144
209 230 154
178 146 156
184 209 177
57 52 77
26 97 255
187 198 165
174 111 228
105 68 24
49 61 28
85 180 57

66 71 51
197 79 52
135 5 9
85 121 117
216 243 120
252 13 205
61 154 172
31 19 124
19 4 129
150 155 158
147 141 134
124 84 122
123 172 119
185 133 163
210 51 177
72 117 34
156 3 97
22 122 239
165 125 9
163 87 59
28 118 128
66 243 66
0 237 228
71 0 54
249 149 193
37 155 84
0 45 3
185 197 221
205 146 164
167 47 144
112 165 28
193 117 148
89 166 142
205 106 217
110 120 127
218 237 12
156 95 36
179 14 239
226 120 71
123 213 156
223 195 234
59 116 150
246 200 97
189 89 78
105 208 147
149 63 198
213 53 13
155 162 226
133 213 16
118 91 78

15 142 6
222 242 79
4 111 37
15 146 178
48 231 37
32 160 91
60 30 4
247 186 214
133 227 175
86 119 165
52 74 145
80 105 126
126 28 81
86 219 95
87 215 212
15 41 49
247 241 19
233 72 49
13 36 181
50 219 171
10 85 154
187 85 128
241 133 5
198 48 22
185 85 3
174 102 253
180 206 2
111 199 58
235 200 50
143 149 2
229 229 121
147 217 101
107 157 237
108 46 84
110 100 67
15 221 250
228 100 26
16 12 130
131 0 228
40 60 196
144 151 188
124 43 103
167 246 76
39 85 141
140 179 112
18 244 13
29 206 154
50 43 82
18 7 98
213 15 189

77 195 181
163 232 223
48 21 10
109 48 192
24 115 85
175 221 56
84 15 251
150 154 78
155 23 155
171 53 202
101 115 188
141 75 170
14 255 57
87 61 144
102 70 90
43 17 244
69 104 14
241 176 45
50 86 102
255 147 132
71 56 46
54 56 204
101 89 124
224 142 158
150 84 168
242 191 139
87 13 194
215 5 138
122 227 98
92 56 178
23 183 36
138 60 109
243 139 125
233 166 36
5 78 111
78 111 120
176 134 128
93 163 140
108 139 168
144 81 166
208 205 84
14 99 13
29 123 195
220 5 122
181 157 244
254 6 31
78 35 158
121 91 36
18 145 219
92 157 160

198 107 103
211 89 157
101 190 81
57 74 137
0 115 7
212 46 179
107 231 71
244 78 117
234 120 179
28 102 250
213 34 152
144 26 23
237 89 31
26 131 121
31 194 151
222 183 161
240 33 94
170 28 190
23 147 14
67 85 193
176 211 234
213 43 103
73 175 102
187 224 232
190 127 238
203 174 199
35 174 223
232 59 199
171 73 48
61 70 68
143 160 4
170 160 55
226 108 3
92 125 95
23 8 160
130 162 169
125 156 114
15 249 210
221 97 65
106 242 127
96 10 105
144 107 111
228 146 149
7 105 127
40 156 22
70 148 44
139 210 34
136 26 201
144 17 132
206 240 34

28 85 48
246 3 80
191 30 213
11 8 66
20 255 109
40 222 31
5 17 131
216 58 209
102 99 56
123 188 6
229 195 30
244 70 51
58 177 197
160 204 174
99 145 124
62 54 178
222 152 151
52 19 26
119 57 253
115 198 205
67 15 193
2 92 33
166 185 79
203 64 166
94 127 162
136 96 5
45 131 192
6 89 129
156 112 51
89 100 47
64 227 238
110 235 34
115 118 124
74 139 35
9 138 99
134 17 155
37 110 140
26 39 222
1 80 122
219 9 0
137 245 211
249 146 145
230 6 130
183 207 110
230 223 35
40 1 223
193 223 69
216 248 202
125 132 25
217 43 48

107 145 71
222 207 236
229 66 171
89 109 26
63 115 174
241 210 193
169 195 250
197 175 210
82 90 180
23 64 191
118 201 53
99 236 76
150 114 103
16 252 166
38 155 179
107 45 70
177 216 38
157 181 217
45 7 144
161 14 64
85 130 144
50 71 27
190 115 148
90 72 192
185 117 239
69 20 41
75 242 202
12 156 18
18 127 207
50 149 35
226 1 182
6 65 213
25 13 130
238 56 206
79 185 58
112 167 131
1 61 59
98 168 253
146 19 203
180 76 3
2 179 98
128 114 11
12 170 79
152 2 71
231 140 189
118 161 123
5 109 132
248 27 136
111 36 248
233 173 199

104 24 14
15 98 219
125 175 86
232 84 135
148 138 243
38 53 240
49 209 235
20 203 101
156 6 243
178 42 68
12 28 95
226 96 122
30 236 235
233 135 171
233 108 158
205 144 65
162 11 167
41 160 212
220 72 169
97 204 114
249 70 57
231 69 149
222 96 254
34 32 11
52 170 196
254 29 197
202 206 29
9 138 205
31 160 74
27 12 45
111 161 176
152 252 235
113 27 136
243 95 73
14 57 70
225 28 123
42 78 127
82 210 245
136 186 87
79 237 17
21 56 65
210 25 111
4 57 221
252 78 198
85 87 97
239 29 63
73 1 132
252 80 24
231 16 198
192 118 236

153 13 61
190 172 199
134 161 96
233 149 77
225 108 119
61 191 122
183 85 81
238 15 171
151 121 98
65 58 159
42 3 207
164 208 146
59 81 210
177 245 225
18 162 143
23 158 181
246 120 213
5 132 63
96 6 97
20 13 129
255 36 235
237 122 29
145 78 168
49 109 218
246 139 169
247 23 54
176 13 54
84 37 44
17 236 65
29 98 14
96 77 172
70 62 34
157 104 95
128 249 240
92 33 83
150 238 162
125 20 101
250 72 198
100 85 151
73 55 238
234 80 99
15 168 73
253 132 18
37 221 219
146 193 67
97 58 181
25 63 227
113 12 96
193 82 131
101 197 97

7 246 219
197 151 142
133 213 159
176 56 152
24 96 76
94 108 91
129 89 106
155 92 39
80 36 57
194 209 71
228 85 61
187 161 151
218 93 78
26 118 70
174 178 42
145 139 231
200 193 37
118 151 171
196 196 1
250 130 167
33 157 120
185 179 94
38 111 77
73 229 235
0 64 5
6 229 155
85 191 249
69 188 58
39 111 151
39 216 48
220 215 236
108 205 246
21 39 203
178 59 197
84 221 35
54 123 203
116 134 100
105 87 169
236 206 227
232 196 32
61 128 46
234 120 204
149 162 104
21 88 189
0 90 37
99 123 181
173 217 4
101 68 104
246 202 225
22 50 2

132 15 15
219 58 185
1 146 119
227 145 104
249 40 236
20 184 240
153 134 78
168 104 126
95 27 172
178 194 106
134 133 51
129 102 55
210 218 222
4 169 203
215 51 47
254 44 240
151 17 80
1 223 78
194 126 28
157 23 159
41 88 192
255 33 202
93 96 17
32 164 131
133 182 113
233 201 254
173 74 208
140 245 88
97 122 39
166 239 164
162 27 151
98 150 182
107 170 214
195 141 25
80 55 32
167 1 233
216 219 5
76 70 129
168 231 14
119 67 244
112 89 141
0 233 186
246 146 211
232 65 61
147 139 106
194 222 169
37 15 166
119 87 91
11 131 153
127 16 39

4 88 118
61 241 141
212 0 113
17 145 236
97 233 85
241 44 237
8 41 244
62 171 32
59 132 180
186 79 185
51 254 60
222 37 4
200 112 84
2 158 45
44 100 17
237 40 253
169 82 102
88 138 244
134 210 161
238 176 0
238 61 159
9 70 219
9 113 241
214 37 121
129 82 79
222 15 76
180 17 242
14 207 133
141 209 239
115 186 67
157 254 123
24 138 225
178 31 45
57 55 122
56 197 241
69 162 101
186 173 44
192 60 111
197 128 174
43 174 14
219 32 159
74 36 4
244 178 230
31 45 220
88 174 44
176 252 22
154 34 224
48 134 77
6 157 5
244 56 154

149 24 102
133 182 135
135 183 85
51 194 39
79 135 9
113 193 37
81 16 86
249 126 55
175 36 64
80 34 195
141 129 112
166 175 64
18 128 243
53 91 169
78 131 152
237 253 117
77 246 161
161 111 37
138 56 192
95 111 120
24 108 177
166 254 178
224 93 108
73 181 23
154 223 88
177 225 44
234 49 55
146 10 77
210 216 183
135 55 62
213 236 229
97 207 184
231 84 227
145 90 90
88 224 70
43 30 143
239 163 146
239 103 202
122 153 149
219 60 39
42 168 150
25 26 105
192 222 180
2 67 174
166 178 239
72 228 100
244 133 137
217 197 219
191 138 21
250 201 38

151 152 127
169 222 176
119 253 143
73 192 207
23 10 162
237 87 136
9 233 232
184 139 81
106 13 148
154 156 198
89 133 88
161 32 238
6 85 124
167 0 191
49 166 228
241 130 106
131 172 4
152 104 52
255 112 133
155 29 89
211 28 214
47 228 36
52 69 190
73 2 93
21 40 240
140 135 20
173 101 188
221 158 205
237 30 50
88 56 164
237 126 230
215 83 107
59 232 83
27 47 30
207 227 150
31 155 218
21 244 24
20 234 179
205 100 154
222 203 198
209 97 109
215 210 121
59 40 190
103 188 249
32 95 48
38 150 126
124 125 200
80 152 199
217 127 102
180 231 79

222 239 203
50 72 0
197 28 36
160 245 158
138 2 33
66 136 157
248 237 131
54 224 150
57 9 127
157 217 139
66 236 5
97 211 169
235 43 137
93 167 242
88 218 238
114 172 84
236 163 248
110 53 212
139 78 150
181 69 191
227 49 189
1 119 221
210 156 246
214 236 76
53 193 15
134 96 26
80 41 184
215 172 237
168 115 203
139 45 31
72 59 70
99 171 213
25 56 240
50 177 139
29 88 237
213 190 248
216 225 210
7 35 124
143 207 119
189 91 85
182 41 161
92 125 79
76 218 152
58 155 241
133 162 27
62 118 181
72 65 4
63 84 152
214 211 5
126 183 37

150 27 119
101 174 172
118 152 114
218 128 118
141 200 114
249 24 250
206 70 148
250 124 189
128 148 129
125 222 245
237 38 94
31 157 53
82 70 67
76 36 39
77 48 210
37 129 183
222 176 35
107 85 17
250 116 167
112 116 215
228 84 7
128 255 226
145 228 67
33 211 235
71 200 133
53 207 251
64 5 53
156 174 160
209 154 144
134 235 15
51 86 87
104 78 120
22 151 75
199 71 93
166 94 69
166 207 188
67 213 50
211 75 1
128 157 164
152 220 161
100 109 11
232 123 60
94 20 122
142 174 93
128 151 135
246 174 186
5 66 87
227 74 142
22 22 94
236 135 209

65 125 71
76 168 84
26 168 29
90 29 161
216 103 177
48 60 110
228 60 77
107 152 6
93 227 192
245 151 143
24 151 24
85 11 230
175 144 10
219 174 142
248 163 123
13 131 159
67 229 188
211 45 221
7 225 154
126 8 136
214 153 156
152 237 108
142 152 79
41 181 238
106 113 235
208 52 246
204 190 130
222 41 189
162 30 26
229 2 195
170 117 253
206 202 174
176 131 61
144 217 153
158 109 213
124 166 56
221 106 211
23 255 60
219 4 57
117 192 94
218 144 197
18 247 65
141 168 235
97 58 125
87 169 231
234 147 33
144 45 232
110 152 53
151 67 236
167 29 197

111 133 34
249 62 76
145 242 204
30 252 70
127 59 32
206 214 135
96 8 170
182 177 227
27 238 179
148 132 202
55 109 32
138 13 10
46 154 76
105 46 58
69 113 10
129 112 135
92 133 2
75 120 245
214 163 158
180 0 42
124 229 61
36 94 163
118 126 61
233 55 91
228 136 103
155 250 145
253 188 157
211 70 184
228 156 142
161 240 226
32 91 7
238 200 217
69 27 85
130 18 138
198 63 107
197 119 118
190 228 140
27 112 157
237 12 41
87 250 4
173 10 103
211 88 140
112 144 140
97 54 116
178 32 160
243 83 171
51 41 53
217 138 116
237 215 172
50 178 61

130 72 138
66 138 150
69 66 219
63 139 19
175 155 234
142 129 89
5 194 55
209 217 99
157 28 236
204 24 129
6 56 38
89 153 115
91 248 241
158 215 175
61 13 215
236 179 230
3 240 140
40 53 251
224 182 65
70 144 173
164 249 169
125 214 180
140 170 121
160 112 103
112 87 77
120 184 197
153 86 128
121 85 104
43 38 99
247 86 101
202 30 146
131 9 239
199 131 255
95 14 132
108 202 3
58 20 216
202 168 33
23 224 144
251 63 152
64 136 231
189 133 223
199 237 46
92 150 203
188 188 201
123 232 207
136 89 201
165 25 102
254 45 88
114 75 9
111 178 34

164 149 234
176 240 221
121 107 139
7 162 63
1 42 24
91 98 39
182 187 209
158 62 211
103 48 193
218 195 142
155 15 98
6 122 70
128 178 177
80 22 214
89 241 200
28 227 180
123 29 247
241 44 77
207 146 160
139 108 34
233 207 155
53 232 236
204 93 246
70 182 207
252 0 149
224 10 225
56 20 156
252 161 78
21 161 220
200 60 21
248 95 126
213 81 37
1 73 148
31 41 208
73 250 158
93 243 92
7 176 135
224 32 167
253 155 185
179 226 220
148 43 171
190 143 126
237 87 61
40 115 42
224 80 191
64 169 12
86 22 138
2 12 192
217 122 40
96 30 76

141 208 96
202 94 252
251 178 100
163 29 66
138 232 94
27 249 167
247 225 68
65 50 226
131 158 188
119 47 198
35 241 47
2 24 121
87 6 49
51 165 196
53 178 19
247 226 105
88 16 121
210 53 170
183 57 221
162 135 124
31 113 138
241 53 226
96 57 25
149 1 101
208 209 82
158 248 124
50 229 180
112 28 105
239 221 46
30 248 51
98 103 32
98 253 117
159 186 102
118 63 205
88 36 112
191 163 235
100 136 30
56 81 14
174 45 217
62 80 35
84 243 138
75 138 210
20 138 117
98 81 240
83 217 14
140 169 220
221 230 93
116 8 152
214 200 197
18 82 41

195 162 203
189 244 155
247 18 92
52 59 7
161 171 158
142 165 200
116 80 95
245 91 65
103 89 69
71 164 234
4 15 90
12 66 164
246 91 95
102 89 120
106 225 150
223 2 2
22 228 212
152 93 64
218 240 80
118 236 68
35 204 64
148 97 56
102 239 234
72 41 233
146 109 229
249 152 227
210 47 144
150 10 5
1 104 243
232 251 35
95 196 147
139 78 177
223 175 92
26 213 12
68 98 146
70 112 224
155 28 164
144 68 13
205 60 150
44 239 78
73 89 108
85 164 27
200 203 223
253 120 209
13 105 60
44 240 100
33 112 133
236 40 191
39 194 128
178 167 29

226 102 74
99 20 77
77 6 235
214 179 249
249 240 225
106 79 12
87 100 221
139 149 159
255 17 186
67 101 41
45 71 60
239 195 112
124 9 175
214 241 113
59 28 181
128 58 138
135 19 135
39 202 215
202 88 145
55 207 2
216 48 175
229 98 131
178 29 232
41 255 132
101 6 45
198 216 183
71 235 201
124 95 234
197 125 71
3 226 218
81 35 129
161 106 9
67 245 216
5 172 206
103 232 121
229 88 145
149 241 32
126 242 135
227 75 219
232 185 62
105 58 5
75 139 30
122 78 238
172 62 78
41 218 240
34 95 100
238 159 221
181 105 51
234 92 65
91 186 128

189 74 229
203 88 108
219 144 250
134 39 5
182 57 187
45 103 16
154 254 195
230 21 173
0 39 183
227 212 172
44 108 73
248 53 212
27 147 69
162 46 99
0 174 105
172 181 226
66 178 87
110 155 129
205 168 153
209 154 167
49 94 137
75 14 151
42 13 84
185 193 69
169 45 108
5 87 196
83 143 136
161 196 207
108 248 118
148 111 50
31 179 37
46 48 247
224 227 97
60 251 143
165 38 113
106 213 119
222 98 180
128 180 119
98 186 163
149 22 129
222 0 52
108 194 131
252 65 28
241 25 212
196 73 215
53 40 139
181 220 67
182 204 249
157 66 96
99 108 175

0 154 20
214 67 117
97 125 185
173 12 32
4 146 229
114 4 27
46 162 40
216 53 211
93 112 92
235 238 185
248 247 137
40 176 101
67 137 168
3 154 53
82 4 36
28 218 182
213 189 203
7 135 53
84 56 234
206 50 172
146 128 194
199 190 139
106 153 207
90 146 206
179 0 72
85 156 159
47 177 42
183 82 10
247 69 182
93 177 173
109 121 129
116 214 112
27 59 186
210 65 111
115 124 104
38 106 223
135 107 65
189 72 221
72 163 7
59 110 71
158 146 80
110 244 100
21 137 63
198 125 10
191 3 255
155 232 109
185 108 208
150 8 192
22 181 139
27 64 144

21 18 65
47 245 64
124 80 126
59 166 205
155 6 91
225 82 183
164 3 36
180 6 147
218 250 81
251 119 190
189 90 73
125 197 161
57 169 90
137 113 144
89 2 173
133 31 68
241 105 193
65 236 79
49 214 51
211 190 25
12 136 193
176 57 126
232 172 155
214 213 203
248 193 170
40 163 107
45 180 212
99 142 103
13 155 172
110 124 169
103 166 21
211 78 2
40 200 235
250 42 212
144 96 10
133 229 12
107 241 205
226 108 130
255 87 158
176 247 165
205 157 202
232 75 3
186 125 244
99 143 88
99 0 223
59 211 92
11 138 151
212 134 140
167 214 31
90 61 77

143 158 182
100 21 78
127 56 68
100 158 47
6 246 29
118 29 23
249 225 130
133 254 129
54 85 246
184 132 215
114 196 196
243 7 18
87 240 190
248 171 112
202 124 235
164 106 123
3 147 228
21 209 232
108 68 36
163 86 208
205 20 23
233 141 82
143 232 187
13 119 223
198 49 76
145 58 15
131 238 254
83 1 174
82 164 62
117 25 132
82 39 14
245 185 1
98 28 233
37 184 133
161 78 21
101 170 61
64 0 169
180 132 28
9 101 234
172 12 168
117 130 12
54 76 185
6 176 13
2 65 207
77 95 225
22 93 93
164 100 153
154 12 43
107 244 72
68 190 247

