P3
50 50
255
190 169 131
53 47 36
232 207 161
17 243 189
249 222 173
207 184 143
68 61 47
142 126 98
215 191 149
185 165 128
220 196 152
216 192 150
157 140 109
127 114 88
74 66 51
182 162 126
156 139 108
99 88 68
181 161 125
121 107 83
210 187 146
147 131 102
152 135 105
52 46 36
188 168 131
192 171 133
18 244 190
150 133 103
127 113 88
161 144 112
165 147 114
137 122 95
166 148 115
143 128 99
168 150 116
29 26 20
208 185 144
104 93 72
177 157 122
106 94 73
226 202 157
183 163 127
45 12 209
130 115 90
149 133 103
192 171 133
171 153 119
158 140 109
146 130 101
149 132 103

117 105 81
31 255 199
200 178 138
47 42 33
226 202 157
251 223 174
191 170 132
171 152 119
48 43 33
108 96 75
240 213 166
219 195 152
224 199 155
51 45 35
242 215 167
64 29 222
19 245 191
146 130 101
177 157 122
210 187 145
151 134 104
143 127 99
100 89 69
114 102 79
242 216 168
147 131 102
188 168 130
13 239 186
186 165 129
145 129 100
207 184 143
75 67 52
187 166 129
107 96 74
104 92 72
186 166 129
221 197 153
131 116 90
127 113 88
171 152 118
198 176 137
108 96 75
90 80 62
95 84 65
110 98 76
73 65 51
163 146 113
123 110 85
195 174 135
179 159 124

152 135 105
143 127 99
17 243 189
142 127 98
145 129 100
28 25 19
168 150 117
169 151 117
135 120 94
248 221 172
178 159 123
158 141 109
202 180 140
174 155 120
144 128 100
238 212 165
100 89 69
116 103 80
44 11 208
1 229 178
57 51 39
232 207 161
191 170 132
194 172 134
129 115 89
149 132 103
201 179 139
142 126 98
44 39 30
148 131 102
80 71 55
237 211 164
48 14 210
21 247 192
118 105 82
134 119 93
153 136 106
196 175 136
60 25 219
100 89 69
80 71 55
181 161 126
239 213 166
176 157 122
129 115 90
190 169 131
202 180 140
230 205 160
190 169 132
143 128 99

188 168 130
73 65 50
173 154 120
160 142 111
209 186 145
48 42 33
159 141 110
127 113 88
179 159 124
158 141 109
168 149 116
78 70 54
33 2 201
150 134 104
15 241 188
74 66 51
237 211 164
168 150 117
122 108 84
107 96 74
225 201 156
171 152 118
138 123 96
66 59 45
185 164 128
234 208 162
250 223 173
101 90 70
194 173 134
145 129 100
192 171 133
143 127 99
250 223 173
85 76 59
252 224 175
222 198 154
80 71 55
81 72 56
144 128 100
250 223 173
3 231 180
173 154 120
152 136 106
50 45 35
128 114 88
170 152 118
38 34 26
195 173 135
208 185 144
77 69 54

214 190 148
84 74 58
77 69 54
212 189 147
37 5 203
133 118 92
99 88 68
149 132 103
32 28 22
12 239 186
117 104 81
146 130 101
212 189 147
55 49 38
186 165 129
161 144 112
238 212 165
122 109 85
139 123 96
144 128 100
142 126 98
155 138 108
158 141 109
156 139 108
43 38 30
222 197 154
52 46 36
197 176 137
116 103 81
194 173 134
117 104 81
233 208 162
171 152 118
170 152 118
239 213 166
143 127 99
250 223 173
192 172 133
142 126 98
82 45 234
207 184 143
132 118 92
189 169 131
91 81 63
248 221 172
139 124 96
162 144 112
170 151 118
225 201 156
140 125 97

147 131 102
111 99 77
206 184 143
122 109 85
223 198 154
243 216 168
53 19 214
104 92 72
218 194 151
178 158 123
239 213 166
139 123 96
126 112 87
132 118 92
84 75 58
128 114 89
164 146 113
210 187 145
173 154 120
75 67 52
252 225 175
75 67 52
16 242 188
202 180 140
171 152 118
106 94 73
44 11 208
222 198 154
199 177 138
165 147 114
9 236 184
50 44 34
168 150 116
143 127 99
90 80 62
171 152 118
156 139 108
245 218 170
221 197 153
159 142 110
124 110 86
12 238 186
190 169 131
179 159 124
200 178 138
36 4 203
107 95 74
200 178 138
177 158 123
101 90 70

188 167 130
197 175 136
132 117 91
230 205 159
97 86 67
160 143 111
246 219 170
133 118 92
224 199 155
107 95 74
213 190 148
242 216 168
193 172 134
121 108 84
228 203 158
118 105 82
180 160 125
2 230 179
187 167 130
98 87 68
16 242 189
188 167 130
156 139 108
252 225 175
230 205 160
186 166 129
254 227 176
190 169 132
10 237 184
197 176 137
119 106 82
25 250 195
222 198 154
79 70 55
113 101 78
139 124 96
205 182 142
145 129 101
155 138 107
206 183 143
201 179 139
104 93 72
152 135 105
119 106 82
226 201 156
28 253 197
236 210 163
98 87 68
148 132 102
248 221 172

195 174 135
115 103 80
254 226 176
149 133 103
56 50 39
30 254 198
97 86 67
165 147 114
179 159 124
59 52 40
92 81 63
33 2 201
49 44 34
43 10 207
165 147 114
218 194 151
237 211 164
206 184 143
212 189 147
153 136 106
178 158 123
191 170 132
189 168 131
161 143 111
126 112 87
177 158 123
245 218 170
25 250 194
251 223 174
1 229 178
54 48 37
119 106 83
99 88 68
104 92 72
42 10 207
65 57 45
177 157 122
21 247 192
216 193 150
94 84 65
77 69 53
163 145 113
207 184 143
137 122 95
123 109 85
137 122 95
196 175 136
133 118 92
40 35 27
145 129 100

148 131 102
133 118 92
150 133 104
122 108 84
130 116 90
241 215 167
199 177 138
3 230 179
145 129 100
227 202 157
207 184 143
203 181 141
223 199 155
82 73 57
153 137 106
150 133 104
182 162 126
206 183 143
177 157 122
230 205 159
119 105 82
140 124 97
159 141 110
225 200 156
120 107 83
106 95 74
197 175 137
232 207 161
147 131 102
144 128 99
197 176 137
250 223 173
125 112 87
184 164 128
220 196 152
227 202 157
166 148 115
85 76 59
134 119 93
63 56 44
169 150 117
3 230 179
121 108 84
252 224 175
130 116 90
142 126 98
155 138 107
196 174 136
135 120 94
209 186 145

144 128 100
218 195 151
136 121 94
137 122 95
177 157 122
72 64 50
171 152 118
75 66 52
23 21 16
221 196 153
236 210 163
11 238 185
187 167 130
141 125 97
134 119 93
145 129 100
155 138 107
186 165 129
144 129 100
207 184 144
64 57 44
169 150 117
248 221 172
1 229 178
70 62 48
143 127 99
193 172 134
214 191 148
192 171 133
224 199 155
230 205 160
238 212 165
131 117 91
136 121 94
113 100 78
69 62 48
61 54 42
170 152 118
156 139 108
98 87 67
229 204 159
94 84 65
17 243 189
112 99 77
27 252 196
115 103 80
156 139 108
236 210 164
85 76 59
141 125 98

176 157 122
53 47 37
29 254 197
151 135 105
197 176 137
241 214 167
250 223 174
73 65 50
220 196 153
143 127 99
235 209 163
121 108 84
155 138 107
215 192 149
134 119 93
209 187 145
181 161 125
141 126 98
156 139 108
24 250 194
240 214 166
196 175 136
134 120 93
226 201 157
1 229 178
150 133 104
48 43 33
159 141 110
149 132 103
169 151 117
78 70 54
95 84 66
95 85 66
139 124 96
61 54 42
206 184 143
151 135 105
83 74 57
216 193 150
52 19 214
122 108 84
149 132 103
154 137 107
176 157 122
195 174 135
81 73 56
122 109 85
9 236 184
92 82 64
252 224 175

206 183 143
233 207 161
123 110 85
96 85 66
115 103 80
193 172 134
213 189 147
220 196 153
240 214 166
252 224 174
14 241 187
126 112 87
21 246 192
195 174 135
8 235 183
68 61 47
177 157 122
150 133 104
246 219 171
2 230 179
166 148 115
79 70 55
175 156 121
204 182 141
143 127 99
152 136 106
151 135 105
168 150 117
174 155 121
139 124 96
153 137 106
129 115 90
104 92 72
89 79 62
149 133 103
146 130 101
172 153 119
3 230 179
37 5 203
217 193 150
167 148 115
67 60 46
212 189 147
1 229 178
75 67 52
126 112 87
149 132 103
169 151 117
1 229 178
103 92 71

26 251 195
165 147 114
94 83 65
213 190 148
62 55 43
44 11 208
191 170 132
114 101 79
86 76 59
179 160 124
200 179 139
121 108 84
7 234 182
97 86 67
106 95 74
205 183 142
185 165 128
210 187 146
208 185 144
81 72 56
73 37 228
114 101 79
126 112 87
13 239 186
217 193 151
140 124 97
152 135 105
172 154 119
250 223 174
161 143 111
136 121 94
242 215 167
95 84 65
218 195 151
76 68 53
255 227 176
172 153 119
255 227 176
176 157 122
251 223 174
217 193 150
36 4 202
232 207 161
186 165 129
97 87 67
154 137 107
193 172 134
212 189 147
121 108 84
201 179 139

134 120 93
143 127 99
15 242 188
69 61 48
251 223 174
85 75 59
62 27 220
198 176 137
93 82 64
233 207 161
239 213 165
24 249 194
95 84 66
235 209 163
190 169 132
71 63 49
13 239 186
202 180 140
190 169 132
122 109 84
111 99 77
81 72 56
245 218 170
90 80 62
246 219 170
148 132 103
127 113 88
254 226 176
32 0 199
168 150 116
240 214 167
253 225 175
99 88 68
228 203 158
91 81 63
203 180 140
190 169 131
38 6 204
163 145 113
128 114 89
185 165 128
142 126 98
250 222 173
66 59 46
159 142 110
140 125 97
117 104 81
200 178 139
214 191 149
252 224 174

46 13 210
162 144 112
142 127 98
141 126 98
187 166 129
76 68 53
199 178 138
215 192 149
72 64 50
183 162 126
116 103 80
228 203 158
99 88 68
166 148 115
194 172 134
240 214 166
65 58 45
99 88 68
48 15 211
189 168 131
227 203 158
165 147 114
237 211 164
97 86 67
147 130 102
128 113 88
227 202 158
134 119 93
10 237 184
145 129 100
249 221 172
209 186 145
191 170 132
108 96 75
158 141 110
211 188 146
221 197 153
248 221 172
208 185 144
155 138 107
183 163 127
220 196 152
57 51 39
76 68 53
161 144 112
82 73 57
140 125 97
23 248 193
237 211 164
126 112 87

224 199 155
130 116 90
74 66 51
148 132 103
125 111 86
210 186 145
129 114 89
116 103 80
159 142 110
169 150 117
146 130 101
86 76 59
237 211 164
74 66 51
72 64 50
120 107 83
127 113 88
250 223 174
169 150 117
12 239 186
22 248 193
157 140 109
114 101 79
238 212 165
11 238 185
212 189 147
38 6 204
114 101 79
233 208 162
114 101 78
209 186 145
239 213 166
154 137 106
242 216 168
243 216 168
150 133 104
143 127 99
134 119 93
236 211 164
123 110 85
214 191 149
102 91 71
193 171 133
114 102 79
133 118 92
189 168 131
97 87 67
158 141 109
155 138 107
65 57 45

117 104 81
23 248 193
242 215 167
24 249 194
112 99 77
111 98 76
246 219 171
102 90 70
168 149 116
234 209 162
36 4 203
138 122 95
28 253 197
168 149 116
196 174 136
232 206 161
114 102 79
233 207 161
172 153 119
254 226 176
18 244 190
19 245 191
91 81 63
97 86 67
182 162 126
242 215 168
148 131 102
200 178 138
3 231 179
87 77 60
82 73 57
148 132 102
239 213 165
223 198 154
128 114 89
94 83 65
152 135 105
143 127 99
141 126 98
65 58 45
65 30 222
2 230 179
242 215 168
127 113 88
67 59 46
144 129 100
92 82 64
132 118 92
208 186 144
245 218 170

20 245 191
116 103 80
103 91 71
94 84 65
159 141 110
208 185 144
164 146 113
158 141 110
13 239 186
245 218 170
174 155 121
195 173 135
25 250 195
199 177 138
144 128 100
68 60 47
101 90 70
46 41 32
124 110 86
198 177 138
101 90 70
8 235 183
36 32 25
124 111 86
7 235 183
183 163 127
153 137 106
205 183 142
225 200 156
156 139 108
180 161 125
105 93 73
216 192 150
162 144 112
156 138 108
27 252 196
97 86 67
132 118 92
39 6 204
177 158 123
30 255 198
202 180 140
236 210 164
115 102 79
13 239 186
20 245 191
19 245 190
121 107 83
29 254 198
205 183 142

2 230 179
87 77 60
254 226 176
163 145 113
132 118 92
214 191 149
189 169 131
73 65 50
189 169 131
78 69 54
67 60 46
155 138 108
241 215 167
195 174 135
146 130 101
179 159 124
244 217 169
248 220 172
182 162 126
133 118 92
194 173 135
160 143 111
246 219 170
186 166 129
161 144 112
168 150 116
82 73 57
136 121 94
169 150 117
200 178 139
212 189 147
117 104 81
14 241 187
165 147 114
119 106 82
24 249 194
212 189 147
166 148 115
236 210 164
30 255 198
107 95 74
248 221 172
86 76 59
31 28 21
139 123 96
179 160 124
228 203 158
9 236 184
177 158 123
231 205 160

184 164 127
253 225 175
113 100 78
110 98 76
179 160 124
154 137 106
138 122 95
250 222 173
97 87 67
101 90 70
249 221 172
112 99 77
177 157 122
253 226 176
136 121 94
140 124 97
250 223 174
236 210 164
103 91 71
169 150 117
217 193 150
233 207 161
126 112 87
191 170 133
174 155 121
114 102 79
125 111 87
120 106 83
34 30 23
26 251 196
160 143 111
65 30 223
233 208 162
143 127 99
93 83 64
134 119 93
166 148 115
96 85 66
58 51 40
81 72 56
224 200 155
162 144 112
91 81 63
157 140 109
134 119 93
130 115 90
224 199 155
171 152 118
126 112 87
187 166 130

75 66 52
73 65 51
6 234 182
233 208 162
142 126 98
170 152 118
233 207 161
107 95 74
102 90 70
236 210 163
195 173 135
232 206 161
56 50 38
160 142 111
226 201 156
106 95 74
196 175 136
108 96 75
110 98 76
233 207 161
142 127 99
117 104 81
59 53 41
84 75 58
107 95 74
211 188 146
128 114 88
5 232 181
240 214 167
68 61 47
178 158 123
215 191 149
117 104 81
213 189 147
25 250 195
128 114 88
89 79 62
42 37 29
232 207 161
38 6 204
133 118 92
206 183 143
122 109 85
187 167 130
189 168 131
121 107 84
204 181 141
137 122 95
204 182 141
171 152 119

144 128 100
130 116 90
157 139 108
77 69 53
166 148 115
149 133 103
71 63 49
140 125 97
73 64 50
239 213 166
158 141 110
201 179 139
139 123 96
233 208 162
247 220 171
34 2 201
199 177 138
65 58 45
220 196 153
94 84 65
54 48 37
191 170 132
230 205 159
43 38 29
203 180 140
96 85 66
218 194 151
189 168 131
242 216 168
175 156 121
245 218 170
192 171 133
166 148 115
212 189 147
182 162 126
145 129 100
207 184 143
24 249 194
206 183 142
225 200 156
175 155 121
167 148 116
93 83 64
235 209 163
175 155 121
112 99 77
223 199 155
253 225 175
191 170 133
196 175 136

166 147 115
138 122 95
136 121 94
162 144 112
183 163 127
103 92 71
155 138 107
34 3 201
189 168 131
243 217 169
235 209 163
181 161 125
196 175 136
123 109 85
31 0 199
247 220 171
141 126 98
185 165 128
218 195 151
226 201 156
140 125 97
126 112 87
180 160 124
30 255 199
99 88 69
155 138 107
116 103 80
229 203 158
161 143 111
233 208 162
194 173 134
152 135 105
217 194 151
88 78 61
184 164 127
190 170 132
174 155 121
128 114 89
234 209 163
252 225 175
132 117 91
168 149 116
185 165 128
139 124 96
217 193 150
106 94 73
16 242 189
78 69 54
64 57 44
117 104 81

217 194 151
129 115 89
211 188 146
149 133 103
39 35 27
34 2 201
146 130 101
135 120 93
160 143 111
156 139 108
150 134 104
78 70 54
139 123 96
95 84 66
138 123 95
108 96 74
121 108 84
233 207 161
218 194 151
193 171 133
153 136 106
172 153 119
34 30 23
91 81 63
188 167 130
147 130 101
40 8 205
84 75 58
192 171 133
160 142 111
210 187 145
158 140 109
205 182 142
59 24 218
120 107 83
26 251 196
142 127 98
121 108 84
251 223 174
78 69 54
32 0 199
211 188 146
10 237 184
76 68 53
133 118 92
0 228 178
196 175 136
98 87 68
71 63 49
182 162 126

90 80 62
148 131 102
58 52 40
148 132 103
38 6 204
147 131 102
174 155 121
50 44 34
34 31 24
208 185 144
191 170 132
136 121 94
203 180 140
205 183 142
155 138 107
124 111 86
81 72 56
147 131 102
162 144 112
142 126 98
125 112 87
225 200 156
225 200 156
38 33 26
248 221 172
149 133 103
35 31 24
9 236 184
223 199 155
128 114 89
176 156 122
193 172 134
189 168 131
203 180 140
159 142 110
14 240 187
141 125 97
126 112 87
194 173 134
241 215 167
25 250 195
140 125 97
12 239 186
157 140 109
229 204 158
144 128 100
126 112 87
228 203 158
219 195 152
131 116 90

116 103 80
32 0 199
93 83 65
151 135 105
203 181 141
152 136 106
47 42 32
24 249 194
3 231 180
156 139 108
104 93 72
135 121 94
86 76 59
220 196 152
239 213 166
46 41 32
29 254 198
156 138 108
67 59 46
220 196 152
98 87 68
163 145 113
197 176 137
118 105 82
138 123 96
194 173 134
229 204 159
207 184 144
255 227 177
171 152 118
32 1 200
243 217 169
207 184 143
93 83 64
132 118 92
223 198 154
171 152 118
40 35 27
94 84 65
98 88 68
208 185 144
101 90 70
13 239 186
107 95 74
213 190 148
197 175 136
198 177 138
68 60 47
30 27 21
130 116 90

214 191 148
28 253 197
36 32 25
116 103 80
113 101 79
249 222 172
91 81 63
192 171 133
107 95 74
146 129 101
163 145 113
145 129 100
212 189 147
108 96 75
110 98 76
76 67 52
109 97 76
238 212 165
105 93 72
238 212 165
79 70 55
102 91 71
131 117 91
227 202 157
155 138 107
12 238 186
80 71 56
114 101 79
241 214 167
112 100 78
156 139 108
120 107 83
226 201 156
226 201 156
82 73 57
138 123 96
196 174 136
188 167 130
181 161 125
150 133 104
255 227 177
84 74 58
142 127 99
113 100 78
237 211 165
110 97 76
87 77 60
124 110 86
159 142 111
187 166 129

179 159 124
181 161 125
201 179 139
105 93 72
89 80 62
152 135 105
233 207 161
177 158 123
218 194 151
136 121 94
138 123 96
80 71 56
167 148 116
133 119 92
189 169 131
2 230 179
137 122 95
124 110 86
124 111 86
128 114 88
19 245 191
136 121 94
182 162 126
33 1 200
217 193 150
251 223 174
189 169 131
174 154 120
132 117 91
90 80 62
179 160 124
200 178 138
172 153 119
150 133 104
45 40 31
207 184 144
190 169 132
237 211 164
173 154 120
251 224 174
65 58 45
159 142 110
230 204 159
107 95 74
139 124 97
149 133 103
222 198 154
111 99 77
94 84 65
15 242 188

85 76 59
114 101 78
138 123 95
22 20 15
224 200 155
192 171 133
39 35 27
168 150 117
126 112 87
194 172 134
245 218 170
159 141 110
196 174 136
252 225 175
173 154 120
99 88 69
232 207 161
39 35 27
138 123 95
236 210 163
74 66 51
77 69 53
222 198 154
160 142 111
165 147 114
128 114 88
154 137 107
95 84 66
157 139 108
120 107 83
244 218 169
230 205 159
159 141 110
142 127 98
128 114 89
95 84 65
125 111 87
82 73 56
84 75 58
92 82 64
26 251 195
237 211 164
119 106 82
251 224 174
12 239 186
58 52 40
4 231 180
57 23 217
155 138 107
127 113 88

166 148 115
35 3 201
173 153 119
123 110 85
146 130 101
36 4 202
7 234 182
251 224 174
135 120 93
94 84 65
210 187 146
234 209 162
166 147 115
231 206 160
167 149 116
89 79 62
242 216 168
241 215 167
50 44 34
86 76 59
160 143 111
79 70 55
191 170 132
127 113 88
207 184 144
50 44 34
253 226 176
128 114 88
143 128 99
140 125 97
123 110 85
92 82 64
44 39 30
175 156 121
184 164 127
197 175 136
58 52 40
215 191 149
110 98 76
129 115 89
156 139 108
140 124 97
150 134 104
74 66 51
234 208 162
193 172 134
110 98 76
143 127 99
118 105 81
6 233 181

61 55 42
122 109 85
199 178 138
181 161 125
210 187 145
101 89 70
224 199 155
183 163 127
111 99 77
115 102 79
44 39 30
185 165 128
237 211 164
227 202 157
204 181 141
203 181 141
103 92 71
179 159 124
173 154 120
216 192 150
162 144 112
172 152 119
209 186 144
40 35 27
188 167 130
159 141 110
243 216 168
148 132 102
149 133 103
28 25 19
200 178 139
41 9 206
90 80 62
182 162 126
62 55 43
133 118 92
100 89 69
240 213 166
212 189 147
216 193 150
63 56 44
122 109 85
87 77 60
196 174 136
118 105 82
128 113 88
54 48 37
165 146 114
140 124 97
210 187 146

81 72 56
244 217 169
194 173 134
220 196 153
193 172 134
193 172 134
152 135 105
137 122 95
170 152 118
100 89 69
57 51 40
251 224 174
125 111 86
44 11 208
158 141 110
164 146 114
229 203 158
115 102 80
60 53 42
42 37 29
172 153 119
192 171 133
148 132 103
144 128 100
235 209 163
124 111 86
89 79 61
69 62 48
200 178 139
89 79 62
129 115 89
81 72 56
159 142 110
31 255 199
77 68 53
16 242 189
83 74 57
191 169 132
133 118 92
115 103 80
172 153 119
148 132 103
204 181 141
225 201 156
218 194 151
116 104 81
101 90 70
71 63 49
163 145 113
209 186 145

233 207 161
220 196 152
246 219 170
140 125 97
97 87 67
137 122 95
139 123 96
139 123 96
69 62 48
250 223 173
166 148 115
225 201 156
171 152 119
114 101 79
213 189 147
207 184 143
234 208 162
194 173 135
227 203 158
229 204 159
156 139 108
228 203 158
114 102 79
249 222 172
50 44 34
207 185 144
227 202 157
182 162 126
129 115 89
190 169 132
40 7 205
246 219 171
76 68 53
152 135 105
209 186 145
154 137 106
167 149 116
140 124 97
38 5 203
247 220 171
131 116 90
222 198 154
202 180 140
111 99 77
76 67 52
167 149 116
235 209 163
111 99 77
38 6 204
47 42 32

66 58 45
165 147 114
135 120 93
220 196 152
173 153 120
194 173 135
177 158 123
169 151 117
90 80 62
239 213 165
164 146 114
139 124 96
36 4 202
169 151 117
132 117 91
179 159 124
87 77 60
186 166 129
178 158 123
109 97 75
120 106 83
163 145 113
113 101 78
163 145 113
213 190 148
38 5 203
164 146 113
4 231 180
139 124 96
24 249 194
112 100 78
188 167 130
213 189 147
189 168 131
79 71 55
110 98 76
254 226 176
108 96 74
246 219 170
144 128 100
139 123 96
214 191 148
248 221 172
152 135 105
184 164 128
22 248 193
57 51 39
130 116 90
133 119 92
69 61 48

91 81 63
235 210 163
104 92 72
162 145 112
233 207 161
173 154 120
80 71 56
161 144 112
158 141 110
168 150 117
226 202 157
116 103 80
180 160 125
130 116 90
97 86 67
171 152 118
148 132 103
186 166 129
244 217 169
228 203 158
170 151 118
98 87 68
135 121 94
135 120 93
128 114 89
113 100 78
129 115 89
189 169 131
5 232 181
200 178 139
24 249 194
158 140 109
102 90 70
87 78 60
219 195 152
170 152 118
214 190 148
142 126 98
208 185 144
153 136 106
140 125 97
57 51 39
20 245 191
88 78 61
176 157 122
11 237 185
129 114 89
136 121 94
124 110 86
168 149 116

96 85 66
217 193 151
209 186 145
176 157 122
136 121 94
199 178 138
60 53 41
205 182 142
108 96 75
94 84 65
175 156 121
211 188 146
151 134 105
122 109 85
160 142 111
53 19 214
249 222 173
155 138 107
133 118 92
145 129 100
125 112 87
38 6 204
179 160 124
172 153 119
248 221 172
250 223 174
140 124 97
79 70 55
27 252 196
107 95 74
52 18 213
232 206 161
198 176 137
143 127 99
220 196 152
66 59 46
246 219 171
211 188 146
193 172 134
139 124 96
174 155 120
49 44 34
24 249 194
85 75 59
247 220 171
222 198 154
224 199 155
22 247 192
185 164 128
4 231 180

200 178 138
14 240 187
12 239 186
215 191 149
47 42 32
185 165 128
226 201 157
194 173 134
79 70 55
217 194 151
153 137 106
132 118 92
91 81 63
101 90 70
190 169 131
214 191 148
184 164 128
149 133 103
211 188 146
100 88 69
144 128 100
200 178 139
109 97 75
47 42 33
84 75 58
162 144 112
181 161 125
247 219 171
125 111 87
108 96 75
233 207 161
168 149 116
217 193 150
52 46 36
28 253 197
172 153 119
200 178 139
221 197 153
186 166 129
24 250 194
177 157 122
12 239 186
89 79 62
232 206 161
94 84 65
154 137 106
182 162 126
185 165 128
202 179 140
7 234 182

53 19 214
75 66 52
105 94 73
25 250 195
62 55 42
160 142 111
48 15 211
221 197 153
53 47 36
254 227 176
208 185 144
232 206 161
151 134 104
210 187 146
247 220 171
192 171 133
8 235 183
124 110 85
142 127 99
160 142 111
162 144 112
133 119 92
248 221 172
23 249 194
172 153 119
131 116 91
97 86 67
5 232 181
192 171 133
95 84 65
86 77 60
210 187 146
98 87 68
182 162 126
123 110 85
20 246 191
41 9 206
53 47 36
237 211 165
160 142 111
133 118 92
147 131 102
226 201 156
187 167 130
181 162 126
149 132 103
79 70 54
118 105 81
247 220 171
197 175 136

102 90 70
206 183 142
184 164 128
206 183 143
230 205 160
163 145 113
162 144 112
229 204 158
188 167 130
10 237 184
140 124 97
142 127 99
98 87 68
64 57 45
106 95 74
148 132 102
229 204 158
110 98 76
219 194 151
173 154 120
155 138 107
33 1 200
244 218 169
219 195 152
206 184 143
227 202 157
39 34 27
225 200 156
227 202 157
236 210 163
102 91 71
123 109 85
138 123 96
150 133 104
150 134 104
3 231 180
199 177 138
140 125 97
202 179 140
3 231 179
125 111 86
197 175 136
75 67 52
207 184 143
191 170 133
9 236 184
69 61 48
172 153 119
43 38 30
236 210 163

135 120 93
174 155 121
144 129 100
88 78 61
197 175 136
85 76 59
150 133 104
160 142 111
247 220 171
239 213 166
130 115 90
85 75 59
181 161 125
246 219 171
246 219 170
135 121 94
237 212 165
159 141 110
204 182 142
81 72 56
231 205 160
6 233 182
187 167 130
200 178 138
172 153 119
168 149 116
250 223 173
154 137 107
91 81 63
128 114 88
204 182 141
13 239 186
181 161 125
252 224 175
186 165 129
186 166 129
208 185 144
216 193 150
99 88 69
211 188 146
233 207 161
209 186 145
229 203 158
106 94 73
207 185 144
211 188 146
135 120 93
170 151 118
155 138 107
125 111 86

152 135 105
159 142 110
25 250 195
218 195 151
101 90 70
15 241 187
76 67 52
250 223 173
227 202 157
197 176 137
111 99 77
66 58 45
150 134 104
87 77 60
115 103 80
162 144 112
138 123 96
168 149 116
239 213 165
78 69 54
236 210 164
117 104 81
154 137 107
151 134 104
213 190 148
24 249 194
17 243 189
171 152 118
236 210 163
34 2 201
83 74 58
32 0 199
63 56 44
91 80 63
146 130 101
191 170 132
20 246 191
126 112 87
110 97 76
227 202 157
95 84 65
177 157 122
181 161 125
101 90 70
124 110 86
191 170 132
61 54 42
213 189 147
34 3 201
168 149 116

132 117 91
160 142 111
119 106 82
135 120 93
232 206 161
171 153 119
161 144 112
11 238 185
127 113 88
123 109 85
52 46 36
174 155 120
16 242 188
4 232 180
74 66 51
17 243 189
212 189 147
103 92 72
240 213 166
170 152 118
31 0 199
247 220 171
208 185 144
168 149 116
125 111 87
225 201 156
150 133 104
132 118 91
64 57 44
182 162 126
130 115 90
103 92 71
227 202 157
73 64 50
198 176 137
78 70 54
214 191 148
208 185 144
175 156 121
173 154 120
218 194 151
13 239 186
189 169 131
0 228 177
9 236 184
159 142 110
103 91 71
151 134 104
104 92 72
186 166 129

223 198 154
39 7 204
156 138 108
139 124 96
37 33 25
118 105 82
254 226 176
149 133 103
113 101 78
6 233 182
90 80 63
109 97 75
220 196 153
88 78 61
2 229 179
219 195 152
117 104 81
143 127 99
223 199 155
144 128 99
24 249 194
243 217 169
198 176 137
206 184 143
127 112 88
138 122 95
66 59 46
237 211 164
173 154 120
128 114 89
194 172 134
152 136 106
84 75 58
83 73 57
250 223 174
240 214 167
163 145 113
144 128 99
253 225 175
29 254 198
123 109 85
208 185 144
171 152 118
112 99 77
185 165 128
157 140 109
76 68 53
46 41 32
186 166 129
75 66 52

233 208 162
199 177 138
254 226 176
98 87 68
250 223 173
233 208 162
26 251 196
106 94 73
208 185 144
120 107 83
207 185 144
42 37 29
48 42 33
183 163 127
161 143 111
34 2 201
69 62 48
155 138 107
157 140 109
190 169 132
125 111 86
178 158 123
86 76 59
78 69 54
1 229 178
20 246 191
229 204 159
85 75 59
16 242 189
212 189 147
123 110 85
255 227 177
224 200 155
133 118 92
83 74 57
244 217 169
149 133 103
86 77 60
144 128 99
92 82 64
245 219 170
175 156 121
136 121 94
146 130 101
202 180 140
226 201 157
25 250 195
80 71 55
19 244 190
77 69 54

239 213 166
35 3 202
128 114 88
67 59 46
224 200 155
220 196 152
125 111 86
178 158 123
121 108 84
198 176 137
30 26 20
86 77 59
184 164 127
131 116 90
243 216 168
89 79 61
224 199 155
143 127 99
29 254 197
240 214 167
182 162 126
143 127 99
12 238 186
103 92 72
184 164 127
1 229 178
145 129 101
67 60 46
126 112 87
34 3 201
215 192 149
148 131 102
239 213 166
176 157 122
129 115 89
155 138 108
113 100 78
111 99 77
155 137 107
215 192 149
117 104 81
164 146 114
20 246 192
231 205 160
97 86 67
220 196 153
124 110 86
159 141 110
188 168 130
203 181 141

181 161 125
68 61 47
79 70 54
12 239 186
68 33 225
104 93 72
152 136 106
199 177 138
148 131 102
111 99 77
83 74 58
9 235 183
88 78 61
34 2 201
78 70 54
120 107 83
93 82 64
211 188 146
174 155 120
181 161 125
154 137 107
190 169 131
136 120 94
237 211 164
52 46 36
22 248 193
246 219 171
166 147 115
186 166 129
216 192 150
83 73 57
146 130 101
255 227 177
173 154 120
241 215 167
185 164 128
249 222 173
5 232 181
188 167 130
245 218 170
86 77 60
142 126 98
152 136 106
130 115 90
229 204 159
105 93 73
1 229 178
161 143 111
174 155 121
202 180 140

174 155 120
167 149 116
244 217 169
83 74 57
150 134 104
99 89 69
36 4 203
139 123 96
64 57 44
28 253 197
114 101 79
178 158 123
136 121 94
117 104 81
153 137 106
249 222 173
179 159 124
186 166 129
238 212 165
232 206 160
117 104 81
68 61 47
42 37 29
234 208 162
121 107 84
105 94 73
168 149 116
253 225 175
255 227 177
152 136 106
156 139 108
101 90 70
24 250 194
243 217 169
115 102 79
227 203 158
196 174 136
211 188 146
212 189 147
99 88 69
97 86 67
216 192 150
154 137 106
154 136 106
173 154 120
77 69 53
252 225 175
19 245 191
130 116 90
155 138 107

122 109 84
157 140 109
169 150 117
83 73 57
157 140 109
52 47 36
150 133 104
165 147 114
140 124 97
54 20 215
57 23 217
170 151 118
163 145 113
129 115 89
42 37 29
213 189 147
11 238 185
116 103 80
120 107 83
151 135 105
192 171 133
250 223 173
198 176 137
186 166 129
83 74 58
183 163 127
162 144 112
136 121 94
184 164 127
205 182 142
160 142 111
231 206 160
91 81 63
153 136 106
160 142 111
138 123 96
147 131 102
171 152 118
154 138 107
121 107 84
189 168 131
249 222 173
125 111 87
175 156 121
125 111 86
3 231 180
195 173 135
101 90 70
174 155 120
87 77 60

34 30 23
218 195 151
134 119 92
189 168 131
82 73 57
186 165 128
73 65 50
103 91 71
37 5 203
226 201 156
157 139 109
231 205 160
169 150 117
167 149 116
69 61 47
88 79 61
211 188 146
221 197 154
193 172 134
233 208 162
145 129 101
136 121 94
252 224 175
30 254 198
22 247 192
161 143 111
196 174 136
167 149 116
156 139 108
170 151 118
172 153 119
143 127 99
213 190 148
170 151 118
132 117 91
230 205 160
10 237 184
196 174 136
196 175 136
34 2 201
239 213 166
149 132 103
215 191 149
165 147 114
81 72 56
202 180 140
138 123 96
212 189 147
236 210 163
96 86 67

212 188 147
70 62 48
105 94 73
169 151 117
197 175 136
73 64 50
39 7 204
15 242 188
133 118 92
214 190 148
232 207 161
104 92 72
254 226 176
250 222 173
219 195 151
169 150 117
157 140 109
212 189 147
101 90 70
169 150 117
100 89 69
215 191 149
13 240 187
138 123 96
129 115 89
104 92 72
26 251 195
66 58 45
170 151 118
90 80 62
64 57 44
238 212 165
104 92 72
181 161 125
127 113 88
181 162 126
57 50 39
177 158 123
125 111 87
108 96 75
148 132 102
114 102 79
140 125 97
89 80 62
145 129 101
97 87 67
170 151 118
77 69 53
243 216 168
219 195 152

