P3
9 9
255
23 140 16
7 172 103
58 112 40
107 134 1
237 147 169
149 55 69
207 253 83
19 58 28
207 186 229

249 57 101
4 57 251
212 83 226
50 219 35
216 28 213
13 222 225
93 3 10
240 10 51
69 204 74

51 40 21
55 224 201
17 29 76
48 226 67
240 48 238
231 207 64
249 36 87
214 69 5
171 138 4

63 16 136
253 245 39
30 7 41
45 0 4
3 17 227
229 35 253
223 29 221
24 10 245
222 207 0

140 57 64
17 229 245
38 11 60
252 251 213
79 41 244
27 247 71
71 72 33
91 214 231
226 74 165

21 65 112
248 26 229
42 238 61
14 14 236
231 40 1
207 242 52
71 67 237
14 16 21
0 217 222

25 93 223
67 17 71
20 252 28
50 234 71
223 231 192
8 227 17
25 55 250
198 74 23
135 74 71

25 217 238
241 74 0
67 63 61
23 73 35
26 235 56
44 250 46
40 31 221
20 238 13
56 248 129

29 32 71
249 252 117
69 108 0
78 3 211
227 100 36
147 118 255
6 63 129
30 41 10
38 194 208

